<?xml version="1.0" encoding="UTF-8" standalone="no"?>
<svg
   xmlns:dc="http://purl.org/dc/elements/1.1/"
   xmlns:cc="http://creativecommons.org/ns#"
   xmlns:rdf="http://www.w3.org/1999/02/22-rdf-syntax-ns#"
   xmlns:svg="http://www.w3.org/2000/svg"
   xmlns="http://www.w3.org/2000/svg"
   xmlns:sodipodi="http://sodipodi.sourceforge.net/DTD/sodipodi-0.dtd"
   xmlns:inkscape="http://www.inkscape.org/namespaces/inkscape"
   id="Layer_1"
   data-name="Layer 1"
   viewBox="0 0 100 115.87958"
   version="1.1"
   sodipodi:docname="flower_yellow.svg"
   width="100"
   height="115.87958"
   inkscape:version="0.92.2 2405546, 2018-03-11">
  <metadata
     id="metadata37">
    <rdf:RDF>
      <cc:Work
         rdf:about="">
        <dc:format>image/svg+xml</dc:format>
        <dc:type
           rdf:resource="http://purl.org/dc/dcmitype/StillImage" />
      </cc:Work>
    </rdf:RDF>
  </metadata>
  <sodipodi:namedview
     pagecolor="#ffffff"
     bordercolor="#666666"
     borderopacity="1"
     objecttolerance="10"
     gridtolerance="10"
     guidetolerance="10"
     inkscape:pageopacity="0"
     inkscape:pageshadow="2"
     inkscape:window-width="951"
     inkscape:window-height="1053"
     id="namedview35"
     showgrid="false"
     inkscape:zoom="2.4069115"
     inkscape:cx="112.6205"
     inkscape:cy="8.2243042"
     inkscape:window-x="1923"
     inkscape:window-y="20"
     inkscape:window-maximized="0"
     inkscape:current-layer="Layer_1" />
  <defs
     id="defs4">
    <style
       id="style2">.cls-1{fill:#231f20;}.cls-2{opacity:0.45;}.cls-3{fill:#ffde17;}</style>
  </defs>
  <title
     id="title6">flower_yellow</title>
  <g
     id="g66"
     transform="matrix(12.51451,0,0,12.51451,0.20888377,-0.03010653)">
    <path
       id="path8"
       transform="translate(-186.52,-34.08)"
       d="m 189.73,39.45 0.15,-0.23 C 190,39 189.61,39 189.5,39 c -2.09,0.64 -1.66,4.29 0.55,4.34 a 3.11,3.11 0 0 0 2.47,-1.08 2,2 0 0 0 -0.19,-2.67 c -0.18,-0.17 -0.86,0.11 -0.67,0.28 A 1.78,1.78 0 0 1 190.59,43 1.47,1.47 0 0 1 189,41.58 c -0.17,-0.68 -0.29,-1.92 0.59,-2.19 l -0.38,-0.18 -0.15,0.23 c -0.18,0.27 0.55,0.2 0.67,0 v 0 z"
       class="cls-1"
       inkscape:connector-curvature="0"
       style="fill:#231f20" />
    <path
       id="path10"
       transform="translate(-186.52,-34.08)"
       d="m 189.69,39.33 c -1.11,-0.71 -2.62,-2 -2.41,-3.49 a 1.1,1.1 0 0 1 1.83,-0.85 3.78,3.78 0 0 1 0.91,2.06 c 0.05,0.25 0.78,0.06 0.72,-0.19 -0.23,-1.05 -0.59,-2.28 -1.77,-2.6 a 2,2 0 0 0 -1.76,0.45 c -1.89,1.68 0.45,4 1.9,5 0.2,0.13 0.87,-0.16 0.58,-0.35 v 0 z"
       class="cls-1"
       inkscape:connector-curvature="0"
       style="fill:#231f20" />
    <path
       id="path12"
       transform="translate(-186.52,-34.08)"
       d="m 190.8,36.36 a 3.72,3.72 0 0 1 0.29,-2.17 l -0.65,0.21 a 2.52,2.52 0 0 1 1.66,1.24 1.26,1.26 0 0 1 -0.46,1.64 c -0.48,0.18 0,0.31 0.26,0.2 a 1.51,1.51 0 0 0 1,-1.61 2.41,2.41 0 0 0 -1.9,-1.77 0.66,0.66 0 0 0 -0.65,0.21 3.85,3.85 0 0 0 -0.3,2.24 c 0,0.17 0.76,0 0.72,-0.19 v 0 z"
       class="cls-1"
       inkscape:connector-curvature="0"
       style="fill:#231f20" />
    <path
       id="path14"
       transform="translate(-186.52,-34.08)"
       d="m 191.7,37.43 a 2.38,2.38 0 0 1 2,1.46 1.32,1.32 0 0 1 -0.53,1.45 1.19,1.19 0 0 1 -1.5,-0.49 c -0.16,-0.23 -0.86,0 -0.67,0.3 a 2,2 0 0 0 3.27,-0.23 c 0.83,-1.5 -0.82,-2.68 -2.11,-2.93 -0.26,-0.05 -0.86,0.35 -0.43,0.43 v 0 z"
       class="cls-1"
       inkscape:connector-curvature="0"
       style="fill:#231f20" />
    <path
       id="path16"
       transform="translate(-186.52,-34.08)"
       d="m 190.95,36.87 a 1.49,1.49 0 0 0 -2.3,1.17 1.9,1.9 0 0 0 2.18,2.08 1.68,1.68 0 0 0 1.21,-0.8 2.08,2.08 0 0 0 -0.5,-2.06 1.46,1.46 0 0 0 -1.42,-0.83 0.92,0.92 0 0 0 -0.9,0.87 c 0,0.22 0.74,0.07 0.72,-0.19 0,-0.68 0.79,0.26 0.81,0.28 a 4.1,4.1 0 0 1 0.54,0.9 c 0.24,0.59 0.17,1.66 -0.77,1.46 a 1.59,1.59 0 0 1 -1,-1.07 1.94,1.94 0 0 1 -0.11,-0.82 c 0,-0.34 0.29,-1.19 0.9,-0.71 0.19,0.15 0.86,-0.13 0.67,-0.28 v 0 z"
       class="cls-1"
       inkscape:connector-curvature="0"
       style="fill:#231f20" />
    <g
       id="g20"
       class="cls-2"
       style="opacity:0.45">
      <path
         id="path18"
         transform="translate(-186.52,-34.08)"
         d="m 188.94,41.78 a 0.9,0.9 0 0 0 0.55,0.84 1.42,1.42 0 0 0 1.4,-0.37 c 0.38,-0.94 -1.07,-0.78 -1.53,-0.6 -0.09,0 -0.63,0.24 -0.43,0.41 a 1.71,1.71 0 0 0 1.94,-0.34 c 0.57,-0.68 -0.37,-1.18 -0.89,-1.38 l -0.18,0.37 c 0.69,-0.33 0.67,-0.82 0.2,-1.37 a 1.31,1.31 0 0 0 -1.41,0.44 c 0,1.11 0,2.87 1.46,3 1.05,0.09 2.78,-0.67 2.17,-2 -0.16,-0.33 -1.08,0 -1.28,0.17 a 1.19,1.19 0 0 0 -0.45,0.45 l 1.43,-0.26 c 0.19,-0.56 0.13,-1 -0.55,-1 a 1.51,1.51 0 0 0 -1.39,0.63 c -0.08,0.3 1.34,0.11 1.43,-0.26 q -1.21,-0.16 -0.82,0.44 a 1.15,1.15 0 0 1 -0.09,0.49 c -0.1,0.31 1.26,0 1.43,-0.26 l 0.13,-0.15 -1.28,0.17 a 1.13,1.13 0 0 1 0.13,0.47 c 0,0.11 -0.23,0.55 -0.22,0.6 q 0.56,0 0.23,-0.12 a 0.63,0.63 0 0 1 -0.24,-0.14 1.38,1.38 0 0 1 -0.36,-0.47 5.08,5.08 0 0 1 -0.26,-2.15 l -1.41,0.44 a 1.12,1.12 0 0 1 0.25,0.4 0.4,0.4 0 0 0 0.07,0.28 c -0.15,0.07 -0.47,0.27 -0.18,0.37 a 1.55,1.55 0 0 1 0.61,0.33 0.68,0.68 0 0 1 0.18,0.36 q -0.19,0.67 0.72,0 l -0.43,0.41 h 0.11 l -0.72,0.13 c 0.21,0 0.27,0.3 0.21,0.44 l 1.4,-0.37 a 0.75,0.75 0 0 1 -0.47,-0.73 c 0,-0.24 -1.46,0 -1.45,0.39 v 0 z"
         class="cls-3"
         inkscape:connector-curvature="0"
         style="fill:#ffde17" />
    </g>
    <g
       id="g24"
       class="cls-2"
       style="opacity:0.45">
      <path
         id="path22"
         transform="translate(-186.52,-34.08)"
         d="m 191.19,39.64 a 1.24,1.24 0 0 0 0.32,1 0.88,0.88 0 0 0 1.15,0 0.86,0.86 0 0 0 0.38,-1 0.61,0.61 0 0 0 -0.66,-0.35 0.87,0.87 0 0 0 -0.9,0.75 0.78,0.78 0 0 0 1,0.5 2.32,2.32 0 0 0 1.23,-0.57 c 0.36,-0.4 0,-0.88 0.26,-1.25 0.54,-0.67 -0.66,-1 -1.09,-0.56 a 0.8,0.8 0 0 0 -0.34,0.87 l 1.45,-0.39 a 0.92,0.92 0 0 0 -1.09,-0.58 1.57,1.57 0 0 0 -1.15,0.89 h 1.43 c 0,-0.55 0.12,-1.42 -0.32,-1.82 a 0.94,0.94 0 0 0 -1,0.08 0.59,0.59 0 0 0 -0.29,0.47 0.5,0.5 0 0 0 0.49,0.49 v 0 c 0.73,0.11 1.47,-0.92 0.5,-1.07 v 0 l 0.44,0.59 v -0.06 l -0.25,0.39 v 0 l -1,0.08 c -0.16,-0.14 -0.07,0.35 -0.07,0.43 v 0.65 c 0,0.77 1.16,0.51 1.43,0 q 0.32,-0.4 -0.6,-0.1 c 0.18,0.68 1.63,0.3 1.45,-0.39 l -0.14,0.2 -1.09,-0.56 a 1.55,1.55 0 0 0 -0.36,0.78 c 0,0.14 0,0.29 0,0.42 l 0.11,-0.06 a 1.71,1.71 0 0 1 -0.32,0.09 h 0.55 -0.13 l 0.31,0.3 v 0.12 l -0.76,0.45 h 0.07 l -0.66,-0.35 0.1,-0.09 h 1.15 a 0.52,0.52 0 0 1 -0.17,-0.48 c 0.09,-0.75 -1.39,-0.57 -1.47,0.1 v 0 z"
         class="cls-3"
         inkscape:connector-curvature="0"
         style="fill:#ffde17" />
    </g>
    <g
       id="g28"
       class="cls-2"
       style="opacity:0.45">
      <path
         id="path26"
         transform="translate(-186.52,-34.08)"
         d="m 190.47,35.74 -0.24,0.61 a 0.47,0.47 0 0 0 0.45,0.63 c 0.52,0 1.46,-0.33 1.18,-1 a 0.79,0.79 0 0 0 -1.45,0.39 1.28,1.28 0 0 0 0.64,0.95 0.93,0.93 0 0 0 1.25,-0.34 1.79,1.79 0 0 0 -0.64,-2.33 0.94,0.94 0 0 0 -1,0.08 0.47,0.47 0 0 0 -0.07,0.77 1,1 0 0 1 0.36,1.3 l 1.25,-0.34 a 0.55,0.55 0 0 1 -0.3,-0.48 l -1.45,0.39 0.25,-0.37 0.57,-0.1 h -0.09 l 0.45,0.63 0.24,-0.61 c 0.3,-0.79 -1.15,-0.8 -1.39,-0.18 v 0 z"
         class="cls-3"
         inkscape:connector-curvature="0"
         style="fill:#ffde17" />
    </g>
    <g
       id="g32"
       class="cls-2"
       style="opacity:0.45">
      <path
         id="path30"
         transform="translate(-186.52,-34.08)"
         d="m 187.43,36.16 c -0.08,0.49 -0.57,0.86 -0.11,1.34 a 1.17,1.17 0 0 0 1.56,-0.14 l -1.26,0.14 0.26,0.36 a 1,1 0 0 0 1.35,-0.25 l 0.46,-1.16 a 1.38,1.38 0 0 0 0.18,-0.85 1.27,1.27 0 0 0 -1.62,-0.6 2,2 0 0 0 -0.83,3.23 c 0.37,0.43 1.76,-0.11 1.34,-0.6 a 1.62,1.62 0 0 1 -0.4,-0.84 1.43,1.43 0 0 1 0,-0.41 3.76,3.76 0 0 0 0.15,-0.45 q 0.12,-0.15 -0.15,0 l 0.05,0.07 c -0.06,0.17 -0.09,0.36 -0.16,0.53 l -0.39,1 1.35,-0.25 L 189,36.9 a 1,1 0 0 0 -1.26,0.14 l -0.06,0.06 0.48,-0.26 h 0.47 c 0,0 0.3,-0.74 0.31,-0.83 0.11,-0.63 -1.36,-0.41 -1.46,0.15 v 0 z"
         class="cls-3"
         inkscape:connector-curvature="0"
         style="fill:#ffde17" />
    </g>
  </g>
</svg>
