<?xml version="1.0" encoding="UTF-8" standalone="no"?>
<svg
   xmlns:dc="http://purl.org/dc/elements/1.1/"
   xmlns:cc="http://creativecommons.org/ns#"
   xmlns:rdf="http://www.w3.org/1999/02/22-rdf-syntax-ns#"
   xmlns:svg="http://www.w3.org/2000/svg"
   xmlns="http://www.w3.org/2000/svg"
   xmlns:sodipodi="http://sodipodi.sourceforge.net/DTD/sodipodi-0.dtd"
   xmlns:inkscape="http://www.inkscape.org/namespaces/inkscape"
   id="Layer_1"
   data-name="Layer 1"
   viewBox="0 0 100.00037 82.865003"
   version="1.1"
   sodipodi:docname="flower_purple.svg"
   width="100.00037"
   height="82.865005"
   inkscape:version="0.92.2 2405546, 2018-03-11">
  <metadata
     id="metadata37">
    <rdf:RDF>
      <cc:Work
         rdf:about="">
        <dc:format>image/svg+xml</dc:format>
        <dc:type
           rdf:resource="http://purl.org/dc/dcmitype/StillImage" />
      </cc:Work>
    </rdf:RDF>
  </metadata>
  <sodipodi:namedview
     pagecolor="#ffffff"
     bordercolor="#666666"
     borderopacity="1"
     objecttolerance="10"
     gridtolerance="10"
     guidetolerance="10"
     inkscape:pageopacity="0"
     inkscape:pageshadow="2"
     inkscape:window-width="951"
     inkscape:window-height="1053"
     id="namedview35"
     showgrid="false"
     inkscape:zoom="2.341431"
     inkscape:cx="82.505779"
     inkscape:cy="-3.1258486"
     inkscape:window-x="1923"
     inkscape:window-y="20"
     inkscape:window-maximized="0"
     inkscape:current-layer="Layer_1" />
  <defs
     id="defs4">
    <style
       id="style2">.cls-1{fill:#231f20;}.cls-2{opacity:0.45;}.cls-3{fill:#7f3f98;}</style>
  </defs>
  <title
     id="title6">flower_purple</title>
  <g
     id="g52"
     transform="matrix(12.253509,0,0,12.253509,-0.27623176,-0.01349772)">
    <path
       id="path8"
       transform="translate(-26.27,-133.65)"
       d="m 28.28,136.09 a 2.1,2.1 0 0 0 -1.45,3.5 c 1,1.08 3.48,1.19 3.74,-0.6 0,-0.26 -0.69,-0.13 -0.72,0.1 -0.22,1.53 -2,0.79 -2.58,-0.12 -0.58,-0.91 -0.3,-2.36 0.91,-2.51 0.34,0 0.61,-0.44 0.11,-0.37 v 0 z"
       class="cls-1"
       inkscape:connector-curvature="0"
       style="fill:#231f20" />
    <path
       id="path10"
       transform="translate(-26.27,-133.65)"
       d="m 29.33,139.15 c 0.4,1.7 2.95,1.41 4.1,0.72 a 1.15,1.15 0 0 0 0.5,-1.69 c -0.56,-0.83 -1.68,-0.77 -2.55,-0.71 -0.21,0 -0.78,0.36 -0.3,0.33 a 2.59,2.59 0 0 1 1.87,0.31 1,1 0 0 1 0.31,1.35 c -0.74,1 -2.9,0.78 -3.2,-0.51 0,-0.19 -0.77,0 -0.72,0.19 v 0 z"
       class="cls-1"
       inkscape:connector-curvature="0"
       style="fill:#231f20" />
    <path
       id="path12"
       transform="translate(-26.27,-133.65)"
       d="m 30.64,137.59 a 4.32,4.32 0 0 0 2.77,-0.44 c 0.73,-0.4 1.38,-1.06 0.85,-1.9 -0.71,-1.14 -3.69,-1.15 -4.05,0.33 -0.07,0.27 0.66,0.16 0.73,-0.09 0.25,-1 2.3,-0.67 2.68,0.1 0.67,1.35 -1.68,1.73 -2.53,1.6 -0.24,0 -0.85,0.33 -0.44,0.4 v 0 z"
       class="cls-1"
       inkscape:connector-curvature="0"
       style="fill:#231f20" />
    <path
       id="path14"
       transform="translate(-26.27,-133.65)"
       d="m 30.78,135.08 c 0.39,-1.57 -2.43,-1.65 -3.34,-1.17 a 1.19,1.19 0 0 0 -0.35,1.83 2.3,2.3 0 0 0 2.1,1 c 0.19,0 0.79,-0.3 0.32,-0.28 -0.94,0 -2.47,-1.06 -1.89,-2.15 0.45,-0.85 2.71,-0.14 2.44,0.93 0,0.14 0.67,0 0.71,-0.13 v 0 z"
       class="cls-1"
       inkscape:connector-curvature="0"
       style="fill:#231f20" />
    <path
       id="path16"
       transform="translate(-26.27,-133.65)"
       d="m 29.34,135.46 a 1.78,1.78 0 0 0 -0.55,2.62 1.89,1.89 0 0 0 2.54,0.4 1.77,1.77 0 0 0 0.61,-2.3 1.92,1.92 0 0 0 -2.59,-0.42 c -0.42,0.25 0.19,0.44 0.47,0.28 1.3,-0.76 2.2,1.43 1,2.16 a 1.19,1.19 0 0 1 -1.55,-0.62 1.38,1.38 0 0 1 0.49,-1.84 c 0.41,-0.27 -0.2,-0.46 -0.47,-0.28 v 0 z"
       class="cls-1"
       inkscape:connector-curvature="0"
       style="fill:#231f20" />
    <g
       id="g20"
       class="cls-2"
       style="opacity:0.45">
      <path
         id="path18"
         transform="translate(-26.27,-133.65)"
         d="m 27.85,136.35 a 1.73,1.73 0 0 0 -1.39,1.94 2.38,2.38 0 0 0 1.84,1.88 c 0.76,0.13 2,-0.34 1.81,-1.32 a 1,1 0 0 0 -0.79,-0.72 c -0.16,0 -0.14,-0.08 -0.1,0 a 1.25,1.25 0 0 1 0,-0.27 0.87,0.87 0 0 0 -0.22,-0.46 0.39,0.39 0 0 0 -0.18,-0.66 1,1 0 0 0 -1,0.27 1.11,1.11 0 0 0 -0.08,1.2 1.17,1.17 0 0 0 0.09,0.56 1,1 0 0 0 0.63,0.32 l 0.17,0.08 q 0,0.22 0.14,0.07 0.14,-0.15 0.06,-0.09 c -0.1,-0.15 -0.42,-0.27 -0.56,-0.44 -0.14,-0.17 -0.7,-1.31 -0.18,-1.43 a 0.68,0.68 0 0 0 0.6,-0.66 0.68,0.68 0 0 0 -0.85,-0.27 v 0 z"
         class="cls-3"
         inkscape:connector-curvature="0"
         style="fill:#7f3f98" />
    </g>
    <g
       id="g24"
       class="cls-2"
       style="opacity:0.45">
      <path
         id="path22"
         transform="translate(-26.27,-133.65)"
         d="m 27.16,134.12 a 1.34,1.34 0 0 0 0.9,2.11 2,2 0 0 0 2.1,-1.57 l -1.4,0.37 0.24,0.27 1.34,-0.59 -1,-0.82 a 1,1 0 0 0 -1.35,0.26 3.31,3.31 0 0 0 -0.33,1.16 0.33,0.33 0 0 0 0.29,0.35 0.72,0.72 0 0 1 0.36,0.15 c 0.43,0.3 1.75,-0.32 1.14,-0.75 a 1.47,1.47 0 0 0 -0.63,-0.26 l 0.29,0.35 a 2.63,2.63 0 0 1 0.23,-0.92 l -1.35,0.26 1,0.82 a 0.94,0.94 0 0 0 1,0 c 0.18,-0.08 0.62,-0.39 0.37,-0.64 l -0.26,-0.26 a 1,1 0 0 0 -1.4,0.37 c 0,0.18 -0.17,0.34 -0.21,0.51 l -0.08,0.09 q 0.5,0 0.18,-0.15 a 0.93,0.93 0 0 1 -0.08,-1.07 c 0.34,-0.65 -1.11,-0.55 -1.36,-0.08 v 0 z"
         class="cls-3"
         inkscape:connector-curvature="0"
         style="fill:#7f3f98" />
    </g>
    <g
       id="g28"
       class="cls-2"
       style="opacity:0.45">
      <path
         id="path26"
         transform="translate(-26.27,-133.65)"
         d="m 30.49,135.68 a 2,2 0 0 1 0.53,0.81 0.6,0.6 0 0 0 0.5,0.44 3,3 0 0 0 2,-0.25 0.82,0.82 0 0 0 0.18,-1.2 1.2,1.2 0 0 0 -1.6,-0.12 l 1.11,-0.11 a 3.72,3.72 0 0 0 -0.61,-0.61 c -0.24,-0.19 -1.61,0.07 -1.4,0.46 a 4.87,4.87 0 0 1 0.54,1.94 c 0,0.38 1.48,0.1 1.45,-0.39 a 4.87,4.87 0 0 0 -0.54,-1.94 l -1.4,0.46 a 3.72,3.72 0 0 1 0.61,0.61 1.21,1.21 0 0 0 1.11,-0.11 h 0.1 l -0.89,0.19 a 1,1 0 0 1 0.26,0.67 l 0.49,-0.23 c 0.17,-0.05 -0.09,0 -0.16,0 a 0.87,0.87 0 0 1 -0.37,0 l 0.14,0.13 c -0.13,-0.2 -0.16,-0.44 -0.28,-0.65 a 2.19,2.19 0 0 0 -0.44,-0.54 c -0.33,-0.3 -1.67,0.24 -1.35,0.53 v 0 z"
         class="cls-3"
         inkscape:connector-curvature="0"
         style="fill:#7f3f98" />
    </g>
    <g
       id="g32"
       class="cls-2"
       style="opacity:0.45">
      <path
         id="path30"
         transform="translate(-26.27,-133.65)"
         d="m 29.74,139.24 a 1.17,1.17 0 0 0 0.39,0.83 1.76,1.76 0 0 0 0.76,0 4.39,4.39 0 0 0 1.9,-0.49 1.19,1.19 0 0 0 0.72,-1.09 0.82,0.82 0 0 0 -1.07,-0.63 1.72,1.72 0 0 0 -1.41,0.88 c -0.16,0.34 -0.36,1.12 0.08,1.32 a 3,3 0 0 0 1.73,-0.19 1.28,1.28 0 0 0 1.08,-1.1 c 0,-0.18 -1.46,0 -1.45,0.39 a 0.49,0.49 0 0 1 -0.09,0.36 q 0.38,0 0,0 a 1.57,1.57 0 0 1 -0.06,-0.3 1.53,1.53 0 0 1 0.06,-0.57 c 0,-0.09 0.31,-0.52 0.09,-0.45 l -0.84,0.13 a 0.61,0.61 0 0 1 0.35,1 0.43,0.43 0 0 1 -0.53,0.22 1.67,1.67 0 0 1 -0.24,-0.72 1.42,1.42 0 0 0 -1.45,0.39 v 0 z"
         class="cls-3"
         inkscape:connector-curvature="0"
         style="fill:#7f3f98" />
    </g>
  </g>
</svg>
