<svg id="Layer_1" data-name="Layer 1" xmlns="http://www.w3.org/2000/svg" viewBox="0 0 8.18 6.76"><defs><style>.cls-1{fill:#231f20;}.cls-2{opacity:0.45;}.cls-3{fill:#7f3f98;}</style></defs><title>flower_purple</title><path class="cls-1" d="M28.28,136.09a2.1,2.1,0,0,0-1.45,3.5c1,1.08,3.48,1.19,3.74-.6,0-.26-0.69-0.13-0.72.1-0.22,1.53-2,.79-2.58-0.12s-0.3-2.36.91-2.51c0.34,0,.61-0.44.11-0.37h0Z" transform="translate(-26.27 -133.65)"/><path class="cls-1" d="M29.33,139.15c0.4,1.7,2.95,1.41,4.1.72a1.15,1.15,0,0,0,.5-1.69c-0.56-.83-1.68-0.77-2.55-0.71-0.21,0-.78.36-0.3,0.33a2.59,2.59,0,0,1,1.87.31,1,1,0,0,1,.31,1.35c-0.74,1-2.9.78-3.2-.51,0-.19-0.77,0-0.72.19h0Z" transform="translate(-26.27 -133.65)"/><path class="cls-1" d="M30.64,137.59a4.32,4.32,0,0,0,2.77-.44c0.73-.4,1.38-1.06.85-1.9-0.71-1.14-3.69-1.15-4.05.33-0.07.27,0.66,0.16,0.73-.09,0.25-1,2.3-.67,2.68.1,0.67,1.35-1.68,1.73-2.53,1.6-0.24,0-.85.33-0.44,0.4h0Z" transform="translate(-26.27 -133.65)"/><path class="cls-1" d="M30.78,135.08c0.39-1.57-2.43-1.65-3.34-1.17a1.19,1.19,0,0,0-.35,1.83,2.3,2.3,0,0,0,2.1,1c0.19,0,.79-0.3.32-0.28-0.94,0-2.47-1.06-1.89-2.15,0.45-.85,2.71-0.14,2.44.93,0,0.14.67,0,.71-0.13h0Z" transform="translate(-26.27 -133.65)"/><path class="cls-1" d="M29.34,135.46a1.78,1.78,0,0,0-.55,2.62,1.89,1.89,0,0,0,2.54.4,1.77,1.77,0,0,0,.61-2.3,1.92,1.92,0,0,0-2.59-.42c-0.42.25,0.19,0.44,0.47,0.28,1.3-.76,2.2,1.43,1,2.16a1.19,1.19,0,0,1-1.55-.62,1.38,1.38,0,0,1,.49-1.84c0.41-.27-0.2-0.46-0.47-0.28h0Z" transform="translate(-26.27 -133.65)"/><g class="cls-2"><path class="cls-3" d="M27.85,136.35a1.73,1.73,0,0,0-1.39,1.94,2.38,2.38,0,0,0,1.84,1.88c0.76,0.13,2-.34,1.81-1.32a1,1,0,0,0-.79-0.72c-0.16,0-.14-0.08-0.1,0a1.25,1.25,0,0,1,0-.27A0.87,0.87,0,0,0,29,137.4a0.39,0.39,0,0,0-.18-0.66,1,1,0,0,0-1,.27,1.11,1.11,0,0,0-.08,1.2,1.17,1.17,0,0,0,.09.56,1,1,0,0,0,.63.32l0.17,0.08q0,0.22.14,0.07t0.06-.09c-0.1-.15-0.42-0.27-0.56-0.44s-0.7-1.31-.18-1.43a0.68,0.68,0,0,0,.6-0.66,0.68,0.68,0,0,0-.85-0.27h0Z" transform="translate(-26.27 -133.65)"/></g><g class="cls-2"><path class="cls-3" d="M27.16,134.12a1.34,1.34,0,0,0,.9,2.11,2,2,0,0,0,2.1-1.57l-1.4.37L29,135.3l1.34-.59-1-.82a1,1,0,0,0-1.35.26,3.31,3.31,0,0,0-.33,1.16,0.33,0.33,0,0,0,.29.35,0.72,0.72,0,0,1,.36.15c0.43,0.3,1.75-.32,1.14-0.75a1.47,1.47,0,0,0-.63-0.26l0.29,0.35a2.63,2.63,0,0,1,.23-0.92l-1.35.26,1,0.82a0.94,0.94,0,0,0,1,0c0.18-.08.62-0.39,0.37-0.64l-0.26-.26a1,1,0,0,0-1.4.37c0,0.18-.17.34-0.21,0.51l-0.08.09q0.5,0,.18-0.15a0.93,0.93,0,0,1-.08-1.07c0.34-.65-1.11-0.55-1.36-0.08h0Z" transform="translate(-26.27 -133.65)"/></g><g class="cls-2"><path class="cls-3" d="M30.49,135.68a2,2,0,0,1,.53.81,0.6,0.6,0,0,0,.5.44,3,3,0,0,0,2-.25,0.82,0.82,0,0,0,.18-1.2,1.2,1.2,0,0,0-1.6-.12l1.11-.11a3.72,3.72,0,0,0-.61-0.61c-0.24-.19-1.61.07-1.4,0.46a4.87,4.87,0,0,1,.54,1.94c0,0.38,1.48.1,1.45-.39a4.87,4.87,0,0,0-.54-1.94l-1.4.46a3.72,3.72,0,0,1,.61.61,1.21,1.21,0,0,0,1.11-.11l0.1,0-0.89.19a1,1,0,0,1,.26.67l0.49-.23c0.17-.05-0.09,0-0.16,0a0.87,0.87,0,0,1-.37,0l0.14,0.13c-0.13-.2-0.16-0.44-0.28-0.65a2.19,2.19,0,0,0-.44-0.54c-0.33-.3-1.67.24-1.35,0.53h0Z" transform="translate(-26.27 -133.65)"/></g><g class="cls-2"><path class="cls-3" d="M29.74,139.24a1.17,1.17,0,0,0,.39.83,1.76,1.76,0,0,0,.76,0,4.39,4.39,0,0,0,1.9-.49,1.19,1.19,0,0,0,.72-1.09,0.82,0.82,0,0,0-1.07-.63,1.72,1.72,0,0,0-1.41.88c-0.16.34-.36,1.12,0.08,1.32a3,3,0,0,0,1.73-.19,1.28,1.28,0,0,0,1.08-1.1c0-.18-1.46,0-1.45.39a0.49,0.49,0,0,1-.09.36q0.38,0,0,0a1.57,1.57,0,0,1-.06-0.3,1.53,1.53,0,0,1,.06-0.57c0-.09.31-0.52,0.09-0.45l-0.84.13a0.61,0.61,0,0,1,.35,1,0.43,0.43,0,0,1-.53.22,1.67,1.67,0,0,1-.24-0.72,1.42,1.42,0,0,0-1.45.39h0Z" transform="translate(-26.27 -133.65)"/></g></svg>