<?xml version="1.0" encoding="UTF-8" standalone="no"?>
<svg
   xmlns:dc="http://purl.org/dc/elements/1.1/"
   xmlns:cc="http://creativecommons.org/ns#"
   xmlns:rdf="http://www.w3.org/1999/02/22-rdf-syntax-ns#"
   xmlns:svg="http://www.w3.org/2000/svg"
   xmlns="http://www.w3.org/2000/svg"
   xmlns:sodipodi="http://sodipodi.sourceforge.net/DTD/sodipodi-0.dtd"
   xmlns:inkscape="http://www.inkscape.org/namespaces/inkscape"
   id="Layer_1"
   data-name="Layer 1"
   viewBox="0 0 100.00043 95.008005"
   version="1.1"
   sodipodi:docname="flower_red.svg"
   width="100.00043"
   height="95.008003"
   inkscape:version="0.92.2 2405546, 2018-03-11">
  <metadata
     id="metadata37">
    <rdf:RDF>
      <cc:Work
         rdf:about="">
        <dc:format>image/svg+xml</dc:format>
        <dc:type
           rdf:resource="http://purl.org/dc/dcmitype/StillImage" />
      </cc:Work>
    </rdf:RDF>
  </metadata>
  <sodipodi:namedview
     pagecolor="#ffffff"
     bordercolor="#666666"
     borderopacity="1"
     objecttolerance="10"
     gridtolerance="10"
     guidetolerance="10"
     inkscape:pageopacity="0"
     inkscape:pageshadow="2"
     inkscape:window-width="951"
     inkscape:window-height="1053"
     id="namedview35"
     showgrid="false"
     inkscape:zoom="3.6575617"
     inkscape:cx="60.742693"
     inkscape:cy="33.218883"
     inkscape:window-x="1923"
     inkscape:window-y="20"
     inkscape:window-maximized="0"
     inkscape:current-layer="Layer_1" />
  <defs
     id="defs4">
    <style
       id="style2">.cls-1{fill:#231f20;}.cls-2{opacity:0.45;}.cls-3{fill:#ed1c24;}</style>
  </defs>
  <title
     id="title6">flower_red</title>
  <g
     id="g52"
     transform="matrix(7.7405897,0,0,7.7405897,-0.06021541,0.08841267)">
    <path
       id="path8"
       transform="translate(-29.44,-29.3)"
       d="m 33.46,35.28 a 3.27,3.27 0 0 0 0.74,6.14 4.35,4.35 0 0 0 3.38,-0.5 c 1.08,-0.85 1,-2.37 0.84,-3.6 0,-0.24 -0.76,-0.08 -0.72,0.19 a 5.25,5.25 0 0 1 -0.09,2.4 c -0.54,1.44 -2.61,1.48 -3.8,0.81 a 3,3 0 0 1 0.1,-5.24 c 0.43,-0.23 -0.21,-0.34 -0.45,-0.21 v 0 z"
       class="cls-1"
       inkscape:connector-curvature="0"
       style="fill:#231f20" />
    <path
       id="path10"
       transform="translate(-29.44,-29.3)"
       d="M 37.54,37.49 C 37,38.49 38.83,39 39.49,39 a 2.54,2.54 0 0 0 2.59,-1.29 c 1.09,-2.08 -1.14,-3.88 -3.12,-3.13 -0.46,0.17 -0.06,0.61 0.33,0.46 a 1.77,1.77 0 0 1 2.31,2 1.82,1.82 0 0 1 -1,1.34 c -0.31,0.13 -2.83,0.05 -2.37,-0.78 0.2,-0.37 -0.53,-0.4 -0.7,-0.1 v 0 z"
       class="cls-1"
       inkscape:connector-curvature="0"
       style="fill:#231f20" />
    <path
       id="path12"
       transform="translate(-29.44,-29.3)"
       d="m 38.82,34.8 c 0.1,-1.35 1,-3 0.37,-4.36 A 2.25,2.25 0 0 0 37,29.3 2.22,2.22 0 0 0 35.25,32.92 c 0.11,0.13 0.79,-0.12 0.68,-0.24 a 2.08,2.08 0 0 1 -0.3,-2.24 1.51,1.51 0 0 1 2.57,-0.18 c 1.14,1.3 0,3.25 -0.09,4.74 a 0.71,0.71 0 0 0 0.72,-0.19 v 0 z"
       class="cls-1"
       inkscape:connector-curvature="0"
       style="fill:#231f20" />
    <path
       id="path14"
       transform="translate(-29.44,-29.3)"
       d="m 35.91,32.17 c -1.54,-0.89 -5.62,-2.07 -6.38,0.54 -0.76,2.61 3.95,4.13 5.84,3.46 0.43,-0.15 0.31,-0.65 -0.13,-0.49 -1.52,0.53 -5.17,-0.56 -5,-2.65 0.15,-2.42 4,-1.08 5.15,-0.44 0.27,0.16 0.91,-0.22 0.56,-0.42 v 0 z"
       class="cls-1"
       inkscape:connector-curvature="0"
       style="fill:#231f20" />
    <path
       id="path16"
       transform="translate(-29.44,-29.3)"
       d="m 35.69,32.39 a 2.88,2.88 0 0 0 -1,4.1 2.37,2.37 0 0 0 3.48,0.1 c 1.12,-1.27 0,-3.34 -1.24,-4 -1.49,-0.84 -2.5,0.34 -2.85,1.72 -0.07,0.28 0.66,0.18 0.73,-0.08 a 2.22,2.22 0 0 1 0.64,-1.37 1.56,1.56 0 0 1 1.58,0.63 c 0.67,0.7 1.26,2.18 0.52,3 -0.9,1 -2.27,0 -2.53,-1 a 2.53,2.53 0 0 1 1.15,-2.84 c 0.43,-0.23 -0.21,-0.37 -0.46,-0.24 v 0 z"
       class="cls-1"
       inkscape:connector-curvature="0"
       style="fill:#231f20" />
    <g
       id="g20"
       class="cls-2"
       style="opacity:0.45">
      <path
         id="path18"
         transform="translate(-29.44,-29.3)"
         d="M 30.41,33 A 1,1 0 0 0 31.34,34.24 0.53,0.53 0 0 0 31.9,34 0.66,0.66 0 0 0 31.78,33.17 0.49,0.49 0 0 0 31.1,33.3 0.62,0.62 0 0 0 31,34 c 0,0.23 0.48,0.13 0.59,0 0.45,-0.36 0.35,-0.94 -0.31,-0.91 a 0.69,0.69 0 0 0 -0.54,1.17 0.49,0.49 0 0 0 0.68,-0.13 0.54,0.54 0 0 0 -0.37,-0.86 0.49,0.49 0 0 0 -0.58,0.26 0.76,0.76 0 0 0 0.58,0.85 c 0.18,0.07 0.62,-0.07 0.58,-0.32 a 1.19,1.19 0 0 0 -1.14,-1 0.42,0.42 0 0 0 -0.5,0.33 2.25,2.25 0 0 0 1.72,1.69 c 0.46,0.13 1,0 1,-0.57 l -0.7,0.25 c 0.32,0.45 1.35,0.72 1.39,-0.11 a 0.16,0.16 0 0 0 -0.08,-0.16 1.75,1.75 0 0 0 -1.52,0.16 c -0.16,0.06 -0.45,0.23 -0.23,0.41 0.22,0.18 0.6,0.44 0.92,0.65 0.32,0.21 0.85,-0.11 0.62,-0.34 l -0.63,-0.63 -0.62,0.34 a 1.78,1.78 0 0 0 2,-0.11 L 33.28,35 a 5.43,5.43 0 0 1 0.62,1.09 c 0.12,0.28 0.82,0.09 0.72,-0.19 a 3.16,3.16 0 0 1 1.05,-3.58 0.21,0.21 0 0 0 0.1,-0.29 c -0.9,-1.6 -2.59,2.27 -2.82,2.68 l 0.68,-0.13 a 2.5,2.5 0 0 0 -1.33,-0.93 0.49,0.49 0 0 0 -0.58,0.26 v 0.39 l 0.5,-0.27 c -0.12,0 -0.24,-0.8 -0.43,-0.95 -0.19,-0.15 -0.2,-0.06 -0.28,-0.12 h -0.33 a 0.76,0.76 0 0 1 -0.21,-1 l -0.5,0.27 c 0.2,0 0.09,1 0.6,1.06 A 0.86,0.86 0 0 0 32,32.84 l -0.7,0.07 a 2.08,2.08 0 0 0 0.5,0.85 0.49,0.49 0 0 0 0.68,-0.13 0.53,0.53 0 0 0 -0.06,-0.79 c -0.18,-0.18 -0.73,-0.06 -0.7,0.25 a 0.83,0.83 0 0 0 1.4,0.37 h -0.59 a 0.65,0.65 0 0 0 0.52,0.46 c 0.16,0.06 0.76,-0.12 0.55,-0.37 A 0.67,0.67 0 0 0 33,33.2 c -0.2,-0.05 -0.61,0.05 -0.58,0.32 0.06,0.55 0.62,0.51 1,0.37 L 33.02,33.65 32.87,34 h 0.68 a 7.38,7.38 0 0 0 0.74,-1.71 c 0.1,-0.32 -0.61,-0.16 -0.71,0 a 0.58,0.58 0 0 0 -0.11,0.57 0.29,0.29 0 0 0 0.32,0.14 c 0.43,0 1,-0.45 0.52,-0.88 -0.48,-0.43 -1.16,0.11 -1.46,0.46 a 0.17,0.17 0 0 0 0,0.27 0.75,0.75 0 0 0 1.15,-0.4 0.21,0.21 0 0 0 -0.23,-0.2 0.91,0.91 0 0 0 -1.09,0.87 c 0,0.25 0.36,0.23 0.52,0.14 1.37,-0.72 -0.64,-1.65 -0.81,-0.54 -0.19,1.3 2.35,-0.22 0.77,-0.5 -0.25,0 -0.87,0.33 -0.43,0.44 0.62,0.16 1.53,0.15 1.6,-0.67 a 0.17,0.17 0 0 0 -0.15,-0.18 c -0.63,-0.11 -2,-0.63 -2.57,-0.21 -0.57,0.42 0.06,1.33 0.46,1.71 A 0.44,0.44 0 0 0 32.8,33 c 0,-0.67 -0.56,-0.76 -1.05,-0.44 -0.14,0.09 -0.2,0.31 0,0.36 0.38,0.08 1.08,-0.14 0.84,-0.65 L 32,32.63 a 1.14,1.14 0 0 0 0.81,0 c 0.21,-0.06 0.47,-0.31 0.16,-0.43 l -0.1,-0.12 c 0.22,-0.19 -0.08,-0.33 -0.26,-0.31 A 0.57,0.57 0 0 0 31.98,32.3 L 32.31,32 31.72,31.68 31,31.9 l 0.6,0.72 c 0.18,0.22 0.88,0 0.67,-0.3 l -0.6,-0.72 a 0.47,0.47 0 0 0 -0.7,0.19 c -0.08,0.87 0.83,0.82 1.44,0.67 a 0.39,0.39 0 0 0 0.31,-0.25 H 32.55 L 32.29,31.9 c -0.36,0.31 -0.09,0.58 0.26,0.73 l 0.16,-0.43 h -0.25 c -0.14,0 -0.7,0.07 -0.58,0.32 h 0.32 v 0.36 l 0.16,-0.11 -0.52,0.06 a 0.33,0.33 0 0 1 0.21,0.41 l 0.7,-0.25 a 2.11,2.11 0 0 1 -0.41,-0.45 q -0.57,-0.57 0,-0.55 l 0.7,0.12 q 0.64,0.06 0.11,0.1 l -0.43,0.44 0.16,0.25 0.57,0.1 0.1,-0.33 -0.23,-0.2 h 0.13 v 0.27 h 0.22 l 0.38,-0.21 h -0.17 l 0.32,0.14 0.07,-0.33 h -0.7 a 6.91,6.91 0 0 1 -0.7,1.59 c -0.19,0.32 0.54,0.28 0.68,0 l 0.21,-0.34 c 0.15,-0.24 -0.26,-0.28 -0.4,-0.24 l -0.2,-0.14 -0.58,0.32 0.29,0.19 0.55,-0.37 -0.23,-0.21 a 0.42,0.42 0 0 0 -0.59,0 l -0.21,-0.3 -0.7,0.25 v 0.44 L 32.37,33.4 A 1.35,1.35 0 0 1 32,32.72 c -0.09,-0.28 -0.6,-0.1 -0.7,0.07 a 0.69,0.69 0 0 0 -0.53,-1.05 0.48,0.48 0 0 0 -0.5,0.27 0.93,0.93 0 0 0 0.63,1.45 c 0.59,0.24 0.36,1 1,1.07 a 0.48,0.48 0 0 0 0.5,-0.27 v -0.39 l -0.58,0.26 a 2.08,2.08 0 0 1 1.09,0.79 0.49,0.49 0 0 0 0.68,-0.13 l 0.73,-1.32 a 5.71,5.71 0 0 1 0.74,-1.11 l 0.1,-0.29 a 3.58,3.58 0 0 0 -1.31,4 l 0.72,-0.19 a 5.86,5.86 0 0 0 -0.67,-1.2 0.49,0.49 0 0 0 -0.63,0.07 1,1 0 0 1 -0.88,-0.11 c -0.16,-0.07 -0.87,0.09 -0.62,0.34 l 0.63,0.63 0.62,-0.34 C 32.7,35.07 32.4,34.86 32.1,34.62 l -0.23,0.41 a 0.92,0.92 0 0 0 0.76,-0.62 0.44,0.44 0 0 0 -0.7,0.25 1.53,1.53 0 0 0 -0.73,-0.57 1.27,1.27 0 0 1 -0.53,-0.93 l -0.5,0.33 a 0.73,0.73 0 0 1 0.69,0.74 L 31.48,34 31.2,33.52 30.62,33.78 30.74,34.15 31.42,34 31.13,33.76 h 0.59 l 0.06,-0.38 -0.68,0.13 0.11,0.49 0.56,-0.2 a 0.69,0.69 0 0 1 -0.63,-0.88 c 0,-0.33 -0.69,-0.21 -0.73,0.07 v 0 z"
         class="cls-3"
         inkscape:connector-curvature="0"
         style="fill:#ed1c24" />
    </g>
    <g
       id="g24"
       class="cls-2"
       style="opacity:0.45">
      <path
         id="path22"
         transform="translate(-29.44,-29.3)"
         d="m 33.86,38.94 a 1.52,1.52 0 0 0 0.64,0.13 c 0.21,0 1.14,-0.19 1,-0.56 a 1.25,1.25 0 0 0 -0.5,-0.7 1.17,1.17 0 0 0 -1.11,0.1 c -1.09,0.61 -0.74,1.91 0.55,1.66 a 1.5,1.5 0 0 0 1.2,-0.82 c 0.16,-0.62 -0.54,-0.85 -1,-0.92 a 1.21,1.21 0 0 0 -1.17,0.46 0.73,0.73 0 0 0 -0.1,0.57 c 0,0.28 0.7,0.16 0.81,0.12 0.48,-0.15 1.44,-0.81 0.62,-1.3 a 1.64,1.64 0 0 0 -2.06,0.84 c -0.19,0.43 1.21,0.16 1.39,-0.11 1.41,-2.12 -2.26,-1.8 -1.69,-0.29 0.16,0.42 1.08,0.08 1.3,-0.11 1.12,-0.95 -0.12,-1.59 -1.07,-1 l 1,0.26 0.33,-0.2 a 0.24,0.24 0 0 0 0.1,-0.36 L 34,36.32 33,36.79 c 0.49,0 0.61,0.63 1,0.87 a 1.25,1.25 0 0 0 0.88,0.12 c 0.5,-0.08 1.3,-0.51 0.84,-1.07 a 1.14,1.14 0 0 0 -1.4,0.37 0.82,0.82 0 0 0 0.49,1.19 c 0.36,0.15 1.73,-0.36 1.17,-0.65 a 1.38,1.38 0 0 0 -1.07,0 0.73,0.73 0 0 0 -0.64,0.51 c 0,2.42 4.12,0.31 2.27,-0.69 a 1.18,1.18 0 0 0 -1.3,0.43 0.94,0.94 0 0 0 0.08,1.11 1.17,1.17 0 0 0 1.11,-0.1 2.9,2.9 0 0 0 0.64,-0.41 0.25,0.25 0 0 0 0.1,-0.36 c -0.56,-0.76 -2.67,0.2 -1.82,0.94 0.85,0.74 2.63,-0.3 1.81,-1.33 a 1.19,1.19 0 0 0 -1.25,0.19 0.56,0.56 0 0 0 -0.13,0.94 1.41,1.41 0 0 0 1.38,-0.1 0.71,0.71 0 0 0 0.39,-0.9 1.05,1.05 0 0 0 -1.3,-0.13 0.7,0.7 0 0 0 -0.45,0.36 c -0.06,0.35 0.24,0.43 0.54,0.42 0.3,-0.01 1.06,-0.15 1,-0.56 a 0.66,0.66 0 0 0 -0.49,-0.6 1.27,1.27 0 0 0 -1.25,0.34 c -0.71,0.82 -0.53,2.5 0.79,2.3 0.13,0 1,-0.24 0.84,-0.55 a 3.11,3.11 0 0 0 -0.5,-0.74 1.18,1.18 0 0 0 -1.25,0.19 c -0.48,0.39 -0.46,1 0.2,1.14 a 1.37,1.37 0 0 0 1.61,-0.9 c 0.06,-0.55 -1.1,-0.13 -1.29,0 -0.19,0.13 -0.45,0.53 -0.13,0.81 a 1.51,1.51 0 0 0 1.4,-0.06 0.57,0.57 0 0 0 0.45,-0.45 0.59,0.59 0 0 0 -0.17,-0.41 1,1 0 0 0 -1,0 c -0.46,0.22 -1,0.57 -0.69,1.14 0.18,0.37 0.91,0.12 1.16,0 l 0.58,-0.32 c 0.11,-0.06 0.42,-0.29 0.24,-0.45 -1,-0.82 -3,-0.2 -2.83,1.21 0,0.39 1,0.07 1.16,0 a 0.77,0.77 0 0 0 0.51,-0.61 0.15,0.15 0 0 0 0,-0.17 1.49,1.49 0 0 0 -2,0.59 c -0.17,0.44 1.22,0.18 1.39,-0.11 1,-1.7 -2.39,-1.88 -2.48,-0.22 0,0.56 1.3,0.16 1.44,-0.21 0.32,-0.82 -0.68,-0.92 -1.23,-0.77 -0.55,0.15 -1.36,1 -0.39,1.19 0.52,0.12 1.58,-0.21 1.52,-0.87 -0.08,-0.94 -1.56,-0.56 -2.07,-0.33 l 1,0.15 a 0.89,0.89 0 0 0 -0.1,-1.07 1.18,1.18 0 0 0 -1.25,0.19 1.22,1.22 0 0 0 -0.51,1 c 0,0.22 0.51,0.17 0.61,0.16 a 1.44,1.44 0 0 0 1.16,-0.6 c 0.35,-0.62 -0.22,-1.11 -0.39,-1.68 -0.13,-0.42 -1.41,-0.08 -1.45,0.3 a 3.81,3.81 0 0 0 3.29,3.71 C 37.16,41.23 38,39.62 38,37.91 l -1.45,0.39 v 0.26 c 0,0.39 1.47,0.12 1.45,-0.39 v -0.26 c 0,-0.4 -1.44,-0.1 -1.45,0.39 a 3.93,3.93 0 0 1 -0.23,1.43 c -0.35,0.84 -1,0.62 -1.54,0.14 a 3.28,3.28 0 0 1 -1.46,-2.61 l -1.45,0.3 c 0.1,0.33 0.76,1.13 0.4,1.43 L 33,38.72 h -0.19 l 0.61,0.16 0.2,-0.47 -1.25,0.19 a 0.55,0.55 0 0 1 0,0.73 c -0.21,0.39 0.89,0.2 1,0.15 l 0.26,0.09 0.73,-0.11 0.06,-0.08 -0.68,0.27 q -0.25,0 -0.18,0.3 L 35,39.78 c 0,-0.67 -0.34,0.51 -0.3,0.45 l 1.39,-0.11 h -0.11 l -0.73,0.11 0.08,-0.1 h 1.16 q 0,-0.54 0,-0.28 l 0.24,-0.45 -0.58,0.32 h 1.16 A 0.36,0.36 0 0 0 37.1,39.47 h -1 l 0.07,0.25 0.45,-0.45 -0.25,0.09 0.86,-0.07 -0.18,-0.08 H 35.76 L 36,39.34 36.73,39.23 A 0.16,0.16 0 0 1 36.65,39 l -1.25,0.19 a 1.69,1.69 0 0 1 0.4,0.59 l 0.84,-0.55 H 36.46 L 37,39.31 a 1.32,1.32 0 0 1 0,-1.72 l -1.25,0.34 0.21,0.34 1,-0.56 0.32,0.12 -0.45,0.36 h 0.12 l -0.86,0.07 v 0.33 l 0.58,-0.32 h -0.16 0.67 L 37.06,38 l -1.25,0.19 0.83,0.07 -0.64,0.3 -0.14,0.06 0.1,-0.36 -0.38,0.23 1.11,-0.1 a 0.6,0.6 0 0 1 0,-0.77 l -1.3,0.43 a 0.32,0.32 0 0 0 0.5,0.26 0.81,0.81 0 0 1 -0.15,-0.61 l -0.64,0.51 h 0.21 -0.69 l 0.19,0.1 1.19,-0.69 a 0.48,0.48 0 0 1 -0.21,-0.74 l -1.4,0.37 0.05,0.09 0.86,-0.28 a 5.41,5.41 0 0 1 -0.72,-0.78 1.76,1.76 0 0 0 -1,-0.22 1.15,1.15 0 0 0 -1,0.47 0.91,0.91 0 0 0 0.18,0.73 l 0.1,-0.36 -0.34,0.23 c -0.63,0.43 0.71,0.45 1,0.26 l 0.11,-0.07 -0.89,0.19 -0.17,0.34 1.3,-0.11 a 0.45,0.45 0 0 1 -0.06,-0.4 L 33,37.62 a 0.67,0.67 0 0 1 -0.17,0.81 l 1.39,-0.11 v -0.11 l -0.73,0.11 q 0.25,0.08 0.07,0.32 l 0.58,-0.32 H 34 l 0.81,0.12 0.1,-0.39 -1.17,0.46 a 1.26,1.26 0 0 0 0.92,0.11 0.39,0.39 0 0 1 0.12,-0.4 l -1.11,0.1 a 0.73,0.73 0 0 1 0.38,0.54 l 1,-0.56 h -0.06 c -0.38,-0.18 -1.71,0.4 -1.17,0.65 v 0 z"
         class="cls-3"
         inkscape:connector-curvature="0"
         style="fill:#ed1c24" />
    </g>
    <g
       id="g28"
       class="cls-2"
       style="opacity:0.45">
      <path
         id="path26"
         transform="translate(-29.44,-29.3)"
         d="m 36.89,37.21 a 3.23,3.23 0 0 0 2.58,0.45 1,1 0 0 0 0.82,-0.6 1.25,1.25 0 0 0 -0.29,-0.87 1.73,1.73 0 0 0 -2,0.12 1,1 0 0 0 0.44,1.64 2,2 0 0 0 1.91,-0.57 c 0.39,-0.79 -0.73,-0.84 -1.18,-0.74 -0.45,0.1 -1.57,0.62 -1,1.27 0.57,0.65 1.53,0.13 2,-0.12 a 0.29,0.29 0 0 0 0.18,-0.19 0.65,0.65 0 0 0 -0.6,-0.41 c -0.19,0 -1.4,0.12 -1.32,0.46 a 0.77,0.77 0 0 0 1.08,0.64 c 0.36,-0.07 1.16,-0.24 1.09,-0.74 l -1.45,0.39 a 0.61,0.61 0 0 0 0.4,0.41 1.66,1.66 0 0 0 1.31,-0.35 0.8,0.8 0 0 0 0.23,-1.09 1.45,1.45 0 0 0 -1.44,0.33 0.55,0.55 0 0 0 0,0.45 C 39.7,38 40.87,37.58 41,37.47 L 41.51,37 c 0.1,-0.09 0.08,-0.17 -0.05,-0.19 -0.13,-0.02 -0.15,-0.34 -0.07,-0.45 l -0.3,0.2 h 0.1 l -0.89,0.21 c 0.14,0 0,0.39 0,0.4 l 1.36,-0.21 c 0.68,-1 -0.54,-1.38 -1.32,-1.2 h 0.58 c -0.07,-0.94 -1.13,-0.78 -1.75,-0.49 -0.62,0.29 -0.6,1 0.22,0.89 a 1.75,1.75 0 0 0 1.09,-0.44 0.41,0.41 0 0 0 -0.25,-0.7 1.77,1.77 0 0 0 -2,0.95 c -0.08,0.3 1.26,-0.06 1.42,-0.27 -0.45,0.59 -1,0.09 -0.46,0.27 l 0.26,0.06 a 2.43,2.43 0 0 0 0.73,0 1.79,1.79 0 0 0 1.28,-0.59 l -1.4,0.37 a 1.21,1.21 0 0 1 -0.64,2.07 1.36,1.36 0 0 0 -0.86,0.37 c 0,0.22 0.44,0.13 0.57,0.1 a 4.42,4.42 0 0 0 2.36,-1.08 1.3,1.3 0 0 0 -0.06,-1.94 1.55,1.55 0 0 0 -1.4,0.37 c 0.4,-0.6 1.06,-0.07 0.48,-0.26 l -0.26,-0.06 a 2.49,2.49 0 0 0 -0.7,0 1.92,1.92 0 0 0 -1.33,0.59 l 1.42,-0.27 a 0.66,0.66 0 0 1 0.3,-0.45 l -0.6,0.26 h 0.16 l -0.65,0.07 q 0.46,0.06 0.2,0.43 l 1,-0.33 h -0.15 0.36 a 0.24,0.24 0 0 1 0,-0.41 l -0.6,0.26 h 0.12 l -0.65,0.07 a 0.53,0.53 0 0 1 0.37,0.57 0.72,0.72 0 0 0 0.58,0 1.76,1.76 0 0 1 0.31,0.38 0.69,0.69 0 0 1 -0.13,0.63 c -0.13,0.18 0.45,0.12 0.48,0.11 a 1.93,1.93 0 0 0 0.87,-0.29 0.43,0.43 0 0 0 0.07,-0.7 1.26,1.26 0 0 0 -1.05,0 1,1 0 0 0 -0.76,0.53 0.42,0.42 0 0 0 0.39,0.52 l -0.05,-0.19 -0.51,0.43 1.38,-0.26 V 37 l -1.44,0.33 a 0.61,0.61 0 0 1 -0.08,0.84 l 1.34,-0.31 a 0.39,0.39 0 0 1 -0.32,-0.33 1.38,1.38 0 0 0 -1.45,0.39 v 0.1 l 0.69,-0.24 c 0.22,0 0,-0.44 0,-0.54 L 38.5,37.7 a 0.33,0.33 0 0 1 0.35,0.27 l 0.15,-0.18 -0.13,0.07 0.69,-0.24 a 0.45,0.45 0 0 0 -0.17,-0.27 0.4,0.4 0 0 1 0.17,-0.5 l -0.87,0.27 h 0.17 -0.36 c 0.18,0.06 0.55,0.47 0.25,0.63 l 0.87,-0.27 c -0.48,0.07 -0.46,-1.19 -0.7,-1.11 l -0.72,0.14 c 0.26,0 0.84,0.84 0.52,1.08 l 0.79,-0.31 a 2.42,2.42 0 0 1 -1.3,-0.5 1.34,1.34 0 0 0 -0.93,0.1 c -0.07,0 -0.64,0.25 -0.44,0.37 v 0 z"
         class="cls-3"
         inkscape:connector-curvature="0"
         style="fill:#ed1c24" />
    </g>
    <g
       id="g32"
       class="cls-2"
       style="opacity:0.45">
      <path
         id="path30"
         transform="translate(-29.44,-29.3)"
         d="M 38.52,33.77 A 1.23,1.23 0 0 0 38.18,32 1,1 0 0 0 36.88,32.45 0.49,0.49 0 0 0 37.14,33.03 1,1 0 0 0 38,33 1,1 0 0 0 38,31.1 c -0.62,-0.37 -2.38,-0.5 -2.19,0.66 l 1.4,-0.48 a 1.4,1.4 0 0 0 -1.72,-0.49 c -0.49,0.18 -1,0.68 -0.54,1.17 a 1.72,1.72 0 0 0 1.69,0.37 1.12,1.12 0 0 0 0.67,-0.46 c 0.16,-0.33 -0.18,-0.69 0.1,-1 a 0.29,0.29 0 0 0 0,-0.5 1.28,1.28 0 0 0 -1.79,0.64 c -0.07,0.25 0.28,0.34 0.45,0.35 0.5,0 1.87,-0.42 1.31,-1.16 -0.56,-0.74 -1.51,-0.14 -1.86,0.32 -0.18,0.31 0.23,0.48 0.48,0.48 0.5,0 1.45,-0.22 1.42,-0.88 -0.03,-0.66 -0.73,-0.63 -1.16,-0.54 -0.43,0.09 -1.15,0.51 -0.76,1 a 1,1 0 0 0 0.67,0.29 c 0.53,0 0.59,-0.19 1,0.27 a 0.94,0.94 0 0 0 1,0 0.93,0.93 0 0 0 0.69,-1.13 c -0.18,-0.48 -1,-0.18 -1.31,0.06 -0.89,0.82 0,1.69 1,1.52 l -0.63,-0.34 -0.08,0.77 c -0.07,0.61 1.4,0.36 1.45,-0.17 l 0.08,-0.77 c 0,-0.32 -0.4,-0.38 -0.63,-0.34 v -0.39 l -1.31,0.06 q 0,0.32 0.18,0.1 h 1 A 1.84,1.84 0 0 0 37.65,30 1.66,1.66 0 0 0 37.12,30 h -0.2 -0.07 l -0.27,0.32 -0.63,0.05 0.73,-0.2 h -0.17 l 0.4,0.46 0.09,-0.14 -0.39,0.29 -0.51,-0.06 0.73,-0.2 h -0.16 l 0.45,0.35 -0.81,0.26 v -0.5 a 1.16,1.16 0 0 0 -0.41,0.84 c 0,0.33 0,0.71 0.65,0 l -0.18,-0.12 q -0.85,0.11 -0.43,0.48 c 0.29,0.38 1.48,0 1.4,-0.48 l -0.07,0.08 -0.73,0.2 a 2.68,2.68 0 0 1 0.92,0.7 h 0.87 v 0 l -1.3,0.45 a 0.71,0.71 0 0 1 0.13,1 c -0.39,0.57 1.07,0.48 1.36,0.06 v 0 z"
         class="cls-3"
         inkscape:connector-curvature="0"
         style="fill:#ed1c24" />
    </g>
  </g>
</svg>
