<svg id="Layer_1" data-name="Layer 1" xmlns="http://www.w3.org/2000/svg" viewBox="0 0 8.9 9.11"><defs><style>.cls-1{fill:#231f20;}.cls-2{opacity:0.45;}.cls-3{fill:#00a14b;}</style></defs><title>flower_green</title><path class="cls-1" d="M230.35,112.61c-2.48-.77-3.59,3-1.8,4.38,1.62,1.28,4.85-.11,3.78-2.37a0.58,0.58,0,0,0-.72.19,1.76,1.76,0,0,1,0,1.61,1.53,1.53,0,0,1-2.45.24,2.49,2.49,0,0,1-.79-1.77c0-.65.35-2.32,1.41-2,0.18,0.05.82-.22,0.59-0.3h0Z" transform="translate(-227.67 -108.54)"/><path class="cls-1" d="M231.84,114.91c0.09,1.93,2.59,2.51,3.93,1.39a2.08,2.08,0,0,0-1-3.71c-0.35-.05-0.74.45-0.25,0.52a1.62,1.62,0,0,1,1.08,2.5,1.66,1.66,0,0,1-3-.77c0-.38-0.75-0.26-0.73.06h0Z" transform="translate(-227.67 -108.54)"/><path class="cls-1" d="M234.43,112.84a2.26,2.26,0,0,0,.51-4c-1.36-.88-3.63.1-3.15,1.9,0.07,0.27.8,0.07,0.72-.19a1.26,1.26,0,0,1,.41-1.38,1.34,1.34,0,0,1,1.87.44c0.53,0.72.65,2.49-.46,2.81-0.43.12-.33,0.51,0.1,0.39h0Z" transform="translate(-227.67 -108.54)"/><path class="cls-1" d="M232.47,110.43a2.66,2.66,0,0,0-2-1.83,2,2,0,0,0-1.67,3.53,2.6,2.6,0,0,0,2.52.52c0.42-.1.37-0.3-0.05-0.2a2.09,2.09,0,0,1-2.36-2.46,1.1,1.1,0,0,1,1.73-.88,3.07,3.07,0,0,1,1.16,1.5,0.7,0.7,0,0,0,.72-0.19h0Z" transform="translate(-227.67 -108.54)"/><path class="cls-1" d="M232.69,110.49a2.25,2.25,0,0,0-2,2.65,2.59,2.59,0,0,0,3.34,1.59,1.58,1.58,0,0,0,.21-2.91c-0.67-.44-2.94-1.16-3.07.23a0.65,0.65,0,0,0,.72-0.19c0-.25.44-0.24,0.59-0.22a2.41,2.41,0,0,1,.67.23,2.25,2.25,0,0,1,.91.68,1.61,1.61,0,0,1,.36,1,1.15,1.15,0,0,1-1.63.87,2.22,2.22,0,0,1-1.39-1.58,1.78,1.78,0,0,1,1.2-2.07c0.3,0,.64-0.36.13-0.28h0Z" transform="translate(-227.67 -108.54)"/><g class="cls-2"><path class="cls-3" d="M230,114.38c0.06-.69-1-0.62-1.34-0.35-0.66.47-.36,1.38,0,1.91a1,1,0,0,0,1.35-.25,1.31,1.31,0,0,0,.16-1.06l-0.42.58a1.21,1.21,0,0,0,.74-0.84,0.33,0.33,0,0,0-.17-0.33c-1-.49-2.77.59-1.52,1.45a1,1,0,0,0,1.16-.21,1.53,1.53,0,0,0-.2-2.31c-0.45-.36-1.74.28-1.13,0.79a1.86,1.86,0,0,0,2.64-.57h-1.42a3.4,3.4,0,0,0,.35,2.66c0.25,0.44,1.17.09,1.35-.25a1,1,0,0,0,.11-0.81c-0.14-.6-1.39-0.24-1.45.26a1,1,0,0,0,.34,1,1,1,0,0,0,1.26-.13c0.45-.53.37-1.15-0.42-1.17a1.14,1.14,0,0,0-1.25,1.13c0,0.74,1.32.41,1.46-.14l0.26-1-1.4.37a0.46,0.46,0,0,1,.08.45q0,0.45-.49,0c0.05-.59-0.92-0.44-1.2-0.22-0.9.71-.15,1.88,0.75,2.21s2.43-.27,2-1.34c-0.27-.59-1.7-0.16-1.45.39l0.36,0a1.43,1.43,0,0,1-.33-0.3,1.87,1.87,0,0,0-.34-0.42l-1.2-.22c-0.18,2,4.6,1.12,3.2-1.24-0.29-.49-1.28-0.06-1.4.37l-0.26,1,1.46-.14a0.65,0.65,0,0,0,0-.22l-0.73.2h0.17l-0.4-.18h0l1.26-.13a0.42,0.42,0,0,1-.22-0.5l-1.45.26,0,0.3,1.35-.25a2.79,2.79,0,0,1-.22-2.18c0.19-.68-1.21-0.34-1.42,0q0,0.11-.14-0.1l-1.13.79a0.83,0.83,0,0,1,.13,1.16l1.16-.21-0.74.13L229,114.5l0.11-.06a0.59,0.59,0,0,0-.42.58,0.52,0.52,0,0,1-.08.56l1.35-.25a1.29,1.29,0,0,1-.31-0.83l-0.86.31h0.08l-0.4-.18v-0.11c-0.06.69,1.41,0.46,1.46-.14h0Z" transform="translate(-227.67 -108.54)"/></g><g class="cls-2"><path class="cls-3" d="M229.15,110.89a1.22,1.22,0,0,0,.29.67,1,1,0,0,0,1.26-.15,1.67,1.67,0,0,0,.51-1.5c-0.09-.56-1.24-0.14-1.4.16a0.87,0.87,0,0,0,.05,1.24,1.29,1.29,0,0,0,1.4-.13,0.74,0.74,0,0,0,.23-1,2.35,2.35,0,0,0-1.07-.79l-1.41,0a5.12,5.12,0,0,0,.1,2.92,1.06,1.06,0,0,0,1.78.15,3.24,3.24,0,0,0,.45-1.07,5.82,5.82,0,0,0,.49-1.51c0-.92-1.13-0.81-1.66-0.47-0.24.15-.38,0.43-0.11,0.63a1.08,1.08,0,0,0,1-.12l0.11-.07-0.73.2a4,4,0,0,0-.45,1.17l-0.2.57c0,0.12-.27.48-0.11,0.4l0.89-.17a3.17,3.17,0,0,1-.26-1.26,5.08,5.08,0,0,1,.14-1.51c0.15-.63-1.23-0.31-1.41,0a0.57,0.57,0,0,0,.21.81c0.15,0.1.33,0.12,0.48,0.21a1,1,0,0,0,.49.37l0.55-.19h-0.14l0.48,0.07a0.37,0.37,0,0,1,0-.49l-1.4.16a0.88,0.88,0,0,1-.23.81l1.26-.15a0.74,0.74,0,0,1-.18-0.47c-0.06-.54-1.51-0.21-1.45.39h0Z" transform="translate(-227.67 -108.54)"/></g><g class="cls-2"><path class="cls-3" d="M232.16,115.26c0.32,1.28,2.75,1.14,2.42-.31-0.12-.53-1.21,0-1.4.19a0.58,0.58,0,0,0,.41,1,1.37,1.37,0,0,0,1.51-.8c0.12-.51-1-0.23-1.17-0.11-0.62.43-.66,1.22,0.14,1.44a1.22,1.22,0,0,0,1.12-.38,3.8,3.8,0,0,0,.64-1.61c0-.24-0.25-0.31-0.44-0.31A1.67,1.67,0,0,0,234,115c-0.15.21,0,.35,0.23,0.39a1.37,1.37,0,0,0,.89-0.18,0.7,0.7,0,0,0,.34-1.09c-0.31-.36-1.7.13-1.35,0.56a1.14,1.14,0,0,0,1.77-.61c0-.44-1.4-0.13-1.45.29l-0.05.44c-0.06.54,1,.22,1.17,0.11,0.53-.27.76-1,0.1-1.32a1.11,1.11,0,0,0-1.3.44,2.27,2.27,0,0,0,.55,2,1.06,1.06,0,0,0,1.4-.37,2.57,2.57,0,0,0-.8-2c-0.36-.34-1.72.2-1.35,0.56a2.16,2.16,0,0,1,.7,1.66l1.4-.37a1.85,1.85,0,0,1-.45-1.63l-1.3.44a2.37,2.37,0,0,0,.16.22l1.17,0.11,0.05-.44-1.45.29,0.15-.19,0.55-.18,0.33,0-1.35.56c0.13,0.15,0,.21.11,0.12l1.12,0.21-0.1.05-0.57.11h0.13l-0.44-.31a3.26,3.26,0,0,1-.54,1.41l1.12-.38c-0.22-.06.12-0.45-0.14-0.27l-1.17-.11,0.29-.12,0.54,0a0.32,0.32,0,0,1,0-.18l-1.4.19a0.43,0.43,0,0,1,0,.39l1-.39a0.52,0.52,0,0,1-.45-0.47c-0.12-.48-1.57-0.11-1.45.39h0Z" transform="translate(-227.67 -108.54)"/></g><g class="cls-2"><path class="cls-3" d="M232.55,111a4.94,4.94,0,0,0,1.19-.24l-1,.06c-0.08.45,0,.84,0.5,0.9a2,2,0,0,0,1.32-.37,0.56,0.56,0,0,0,0-.83,1.49,1.49,0,0,0-1.26,0,1.06,1.06,0,0,0-.83.64,0.57,0.57,0,0,0,.7.53c0.41,0,2.12-.56,1.22-1.16-0.21-.14-1.46.11-1.41,0.43a0.94,0.94,0,0,0,1.27.9c0.65-.12,1.52-0.57,1-1.35a0.68,0.68,0,0,0-.21-0.24l0.06-.07a1.16,1.16,0,0,0,.08-0.37,0.56,0.56,0,0,0-.54-0.44,1.89,1.89,0,0,0-1.86.86l1.4-.37a1.81,1.81,0,0,0-1.2-.09l0.58,0a1,1,0,0,0-.22-0.78l-1.32.46a2.38,2.38,0,0,1,1.76,2.39,0.14,0.14,0,0,0,.12.07,1.57,1.57,0,0,0,1.65-.58,2.48,2.48,0,0,0-.42-1.32,9.08,9.08,0,0,0-.6-1.14,0.68,0.68,0,0,0-.69-0.41,2.07,2.07,0,0,0-1.08.31c-0.59.4-.65,1.51-0.68,2.16,0,0.16,1.43,0,1.45-.39a2.94,2.94,0,0,1,.48-1.88l-1.13.34a3.53,3.53,0,0,1,.75,1.29c0.15,0.33.64,1.12,0.39,1.46l0.3-.2-0.12.05,1-.2a6.55,6.55,0,0,0-.15-0.91,2.55,2.55,0,0,0-.46-0.75,2.59,2.59,0,0,0-1.41-.84c-0.16,0-1.47.26-1.32,0.46a1,1,0,0,1,.22.78,0.76,0.76,0,0,0,.58,0l0.11,0.09a1.55,1.55,0,0,0,1.4-.37q0.19-.32-0.27-0.07-0.51-.05-0.23.2c-0.05.14,0.14,0.21,0,.37a0.14,0.14,0,0,0-.07.12,0.79,0.79,0,0,1,.19,1.09l0.3-.2-0.13.06,0.73-.2a1.18,1.18,0,0,0-.17-0.36,1.73,1.73,0,0,1-.11-0.43L233,111c0.07,0,.25.31,0.13,0.39l0.69-.24q0.22-.09.08-0.26,0.21-.63-0.78,0a0.4,0.4,0,0,1,.16.28,0.39,0.39,0,0,1-.08.32l0.86-.37a1.21,1.21,0,0,0,.14-0.75c0-.2-0.95.05-1,0.06l-0.06,0a1.56,1.56,0,0,0-1,.33c-0.15.24,0.13,0.21,0.33,0.19h0Z" transform="translate(-227.67 -108.54)"/></g></svg>