<svg id="Layer_1" data-name="Layer 1" xmlns="http://www.w3.org/2000/svg" viewBox="0 0 7.35 6.53"><defs><style>.cls-1{fill:#231f20;}.cls-2{opacity:0.45;}.cls-3{fill:#21409a;}</style></defs><title>flower_blue</title><path class="cls-1" d="M322.58,42.87a3,3,0,0,0-1.89,1.37,1.57,1.57,0,0,0,.37,2c1,0.88,3.64.91,3.64-.92,0-.38-0.73-0.27-0.73.06,0,1.36-2,1-2.55.21-0.67-1,.41-1.91,1.29-2.19,0.44-.14.31-0.64-0.13-0.49h0Z" transform="translate(-320.5 -40.26)"/><path class="cls-1" d="M324.91,45.16a0.62,0.62,0,0,0-.91.76,1.94,1.94,0,0,0,2,.85,1.86,1.86,0,0,0,1.84-1.39,1.36,1.36,0,0,0-1.61-1.44c-0.22,0-.78.38-0.3,0.34a1.11,1.11,0,0,1,.58,2.09,1.59,1.59,0,0,1-1.39-.2c-0.08-.06-0.71-0.74-0.51-0.82l-0.47,0,0.08,0c0.2,0.11.81-.18,0.68-0.26h0Z" transform="translate(-320.5 -40.26)"/><path class="cls-1" d="M325.66,44a1.31,1.31,0,0,0,1.7-.07,1.74,1.74,0,0,0,.13-2.18,1.85,1.85,0,0,0-1.9-.92,1.57,1.57,0,0,0-1.36,1.39c0,0.35.72,0.22,0.73-.07,0-1,1.14-1,1.69-.36a1.93,1.93,0,0,1,.41.89c0.06,0.31-.08,1.56-0.73,1-0.22-.19-0.9.1-0.67,0.3h0Z" transform="translate(-320.5 -40.26)"/><path class="cls-1" d="M322.6,43.1c-0.8.19-.88-2.25,0.26-2.35,0.9-.08,1.27,1.25,1.44,1.91,0.07,0.28.8,0.09,0.72-.19a3.17,3.17,0,0,0-1.09-2,1.68,1.68,0,0,0-1.89.11,2,2,0,0,0-.79,1.9,1.16,1.16,0,0,0,1.45,1c0.44-.1.33-0.51-0.11-0.41h0Z" transform="translate(-320.5 -40.26)"/><path class="cls-1" d="M324.54,42.48a1.38,1.38,0,0,0-1.83,1.22,1.64,1.64,0,0,0,1.8,1.61,1.46,1.46,0,0,0,1.3-1.9,1.43,1.43,0,0,0-2.1-.42c-0.39.29,0.18,0.59,0.49,0.36a0.68,0.68,0,0,1,.95.41,0.79,0.79,0,0,1-.76,1,1.12,1.12,0,0,1-.9-0.79c-0.11-.36.11-1.2,0.63-1,0.32,0.14.84-.32,0.41-0.51h0Z" transform="translate(-320.5 -40.26)"/><g class="cls-2"><path class="cls-3" d="M321.55,45.88a0.63,0.63,0,0,0,.64.31c0.23,0,1.23-.12,1.19-0.49a0.86,0.86,0,0,0-.55-0.73,1.37,1.37,0,0,0-.93.09c-0.09,0-.63.25-0.43,0.41,0.48,0.37,2.26-.07,2-0.86a0.43,0.43,0,0,0-.41-0.09,3.24,3.24,0,0,0-1.32.4c-0.4.22,0,.32,0.24,0.31a1.46,1.46,0,0,0,1.24-.56c0.16-.44-0.39-0.5-0.69-0.48a1.8,1.8,0,0,0-1.28.58,0.65,0.65,0,0,0,.23,1,1.58,1.58,0,0,0,1.25-.34l0,0a0.15,0.15,0,0,0,.07-0.14c-0.35-.45-1.34-0.09-1.67.23,0,0-.11.14,0,0.19a1.59,1.59,0,0,0,1.51-.27,1.73,1.73,0,0,0,.39-1.3c0-.57-0.34-0.63-0.82-0.54a1.54,1.54,0,0,0-.79.32c-0.22.23-.34,0.59-0.55,0.85l1.37-.19,0,0-0.69.25h-0.36a1.2,1.2,0,0,1,.41.67,1.54,1.54,0,0,0,2.17.49,0.43,0.43,0,0,0,.31-0.29,0.19,0.19,0,0,0-.1-0.19,1.27,1.27,0,0,0-.93.09l-0.06,0c-0.05,0-.57.22-0.47,0.35,0.39,0.59,2,.24,2.19-0.4a0.54,0.54,0,0,0-.59-0.62,2,2,0,0,0-1.48.46c-0.24.22,0.22,0.24,0.34,0.23a1.71,1.71,0,0,0,1-.34c-0.54.49-1,0-.67,0.45v0.12q1.11,0.07.7-.29l-0.47.35,0.06,0-0.93.09V46l0.31-.29-0.11.05,1-.19a1.28,1.28,0,0,1-.86-0.68,1.25,1.25,0,0,0-.41-0.66,1.61,1.61,0,0,0-1.71.5c-0.11.21,0.43,0.15,0.49,0.15a1.52,1.52,0,0,0,.88-0.33,4.56,4.56,0,0,0,.61-0.92l-1,.42h0.09l-0.37,0a1.52,1.52,0,0,1-.15,1.45l0.79-.32-0.09,0,0.55,0-0.08,0,0,0.19,0.06-.06-0.79.32,0.09,0h-0.46l0.09,0-0.13-.08,0.05,0.07,0.07-.14,0,0,1.25-.34a0.42,0.42,0,0,1-.09-0.33c0-.22.18-0.34-0.12-0.23l-0.72.13c0.08,0,0,.21.09,0.15l0.87-.27h-0.09L322.86,45l-0.42.14L322,45a0.14,0.14,0,0,1,0,.15q-0.15.48,0.8-.18l-1.37.49a0.7,0.7,0,0,1,.46.63l1.19-.49L323,45.49c-0.21-.35-1.56.19-1.45,0.39h0Z" transform="translate(-320.5 -40.26)"/></g><g class="cls-2"><path class="cls-3" d="M325.88,45.24a0.37,0.37,0,0,0-.09-0.24,1.05,1.05,0,0,0-1.15.05c-0.34.2-.88,0.79-0.18,1,0.44,0.1,1.46-.14,1.41-0.72s-1.25.09-1.39,0.22a0.48,0.48,0,0,0-.1.69,1.28,1.28,0,0,0,.69.21,1.84,1.84,0,0,0,1,.11,3.87,3.87,0,0,0,1-.4l-0.89.19c0.53,0.07,1.83,0,1.71-.83,0-.2-0.49-0.14-0.6-0.12a0.78,0.78,0,0,1-.43-0.11l-0.25.4a2,2,0,0,0,.52-0.4l-1.39.22c0.13,0.61,1.44.18,1.67-.13,0.55-.71-0.79-0.73-1.15-0.66l0.6,0.2c0.05-.13-0.06-0.47,0-0.54l-1.12.36h0.08a1.51,1.51,0,0,0,1-.27c0.22-.18.19-0.35-0.1-0.39a1.54,1.54,0,0,0-1.15.31,0.52,0.52,0,0,0-.2.29,2.33,2.33,0,0,1,0,.47c-0.11.27,0.51,0.22,0.6,0.2a0.3,0.3,0,1,1,0,.11l0.59-.3-0.09,0,0.66,0,0,0c-0.09-.43-1.23.05-1.39,0.22l-0.06.06c-0.06,0-.46.29-0.25,0.4A2.41,2.41,0,0,0,327,46l-0.6-.12h0.12l0.73-.2c0.12,0,0,0-.07,0a1.44,1.44,0,0,0-.37,0,1.86,1.86,0,0,0-.74.23c-0.38.22,0.27-.06,0.27,0a0.76,0.76,0,0,0-.2-0.09c-0.16,0-.66,0-0.31-0.29l-1.39.22v0.1l0.06-.17-0.07.08,0.78-.35-0.1,0,0.56,0.06a0.15,0.15,0,0,0-.16-0.09l-1.15.05a0.37,0.37,0,0,1,.09.24c0.07,0.37,1.52,0,1.45-.39h0Z" transform="translate(-320.5 -40.26)"/></g><g class="cls-2"><path class="cls-3" d="M324.23,42.22a0.84,0.84,0,0,0,.62,1A0.93,0.93,0,0,0,326,42.5l-1.4.37c0.43,0.75,1.77,1.34,2.49.67s-0.19-1.76-.82-2.13c-0.39-.24-1.46,0-1.28.62a3.36,3.36,0,0,0,.3.74,1.51,1.51,0,0,1,.38.65c-0.33.76,1.13,0.78,1.39,0.17s-0.43-1.29-.62-2l-1.28.62a1.76,1.76,0,0,1,.5.42c0.06,0.08.1,0.17,0.16,0.24,0.19,0.24-.18.17,0.32,0l0.57-.1a1.1,1.1,0,0,1-.79-0.54,0.86,0.86,0,0,0-1.4.37v0.08l0.41-.49-0.08,0,0.74-.06q0.17,0.17.1-.07c0.06-.76-1.42-0.56-1.47.11h0Z" transform="translate(-320.5 -40.26)"/></g><g class="cls-2"><path class="cls-3" d="M323.45,40.93a2.23,2.23,0,0,0-1.26.31,0.82,0.82,0,0,0-.35.91,0.79,0.79,0,0,0,.34.79,2,2,0,0,0,1.26-.18,1.32,1.32,0,0,0,.78-1.72c-0.3-.67-1.53-0.27-2,0-0.22.15-.2,0.27,0.08,0.29a1.85,1.85,0,0,0,1-.27l-0.73.18,0.11,0.1c0,0.1.06,0.19,0.08,0.3a5.09,5.09,0,0,1-.07.75l-0.06.11,0.7-.19a0.9,0.9,0,0,0,0-.26,1.05,1.05,0,0,1,.06-0.91l-0.41.21,0.12,0-0.72.14h0.12a1.82,1.82,0,0,0,1-.27c0.23-.15.2-0.27-0.08-0.29h0Z" transform="translate(-320.5 -40.26)"/></g></svg>