<svg id="Layer_1" data-name="Layer 1" xmlns="http://www.w3.org/2000/svg" viewBox="0 0 12.92 12.24"><defs><style>.cls-1{fill:#231f20;}.cls-2{opacity:0.45;}.cls-3{fill:#ed1c24;}</style></defs><title>flower_red</title><path class="cls-1" d="M33.46,35.28a3.27,3.27,0,0,0,.74,6.14,4.35,4.35,0,0,0,3.38-.5c1.08-.85,1-2.37.84-3.6,0-.24-0.76-0.08-0.72.19a5.25,5.25,0,0,1-.09,2.4c-0.54,1.44-2.61,1.48-3.8.81a3,3,0,0,1,.1-5.24c0.43-.23-0.21-0.34-0.45-0.21h0Z" transform="translate(-29.44 -29.3)"/><path class="cls-1" d="M37.54,37.49C37,38.49,38.83,39,39.49,39a2.54,2.54,0,0,0,2.59-1.29c1.09-2.08-1.14-3.88-3.12-3.13-0.46.17-.06,0.61,0.33,0.46a1.77,1.77,0,0,1,2.31,2,1.82,1.82,0,0,1-1,1.34c-0.31.13-2.83,0.05-2.37-.78,0.2-.37-0.53-0.4-0.7-0.1h0Z" transform="translate(-29.44 -29.3)"/><path class="cls-1" d="M38.82,34.8c0.1-1.35,1-3,.37-4.36A2.25,2.25,0,0,0,37,29.3a2.22,2.22,0,0,0-1.75,3.62c0.11,0.13.79-.12,0.68-0.24a2.08,2.08,0,0,1-.3-2.24,1.51,1.51,0,0,1,2.57-.18c1.14,1.3,0,3.25-.09,4.74a0.71,0.71,0,0,0,.72-0.19h0Z" transform="translate(-29.44 -29.3)"/><path class="cls-1" d="M35.91,32.17c-1.54-.89-5.62-2.07-6.38.54s3.95,4.13,5.84,3.46c0.43-.15.31-0.65-0.13-0.49-1.52.53-5.17-.56-5-2.65,0.15-2.42,4-1.08,5.15-.44,0.27,0.16.91-.22,0.56-0.42h0Z" transform="translate(-29.44 -29.3)"/><path class="cls-1" d="M35.69,32.39a2.88,2.88,0,0,0-1,4.1,2.37,2.37,0,0,0,3.48.1c1.12-1.27,0-3.34-1.24-4-1.49-.84-2.5.34-2.85,1.72-0.07.28,0.66,0.18,0.73-.08a2.22,2.22,0,0,1,.64-1.37,1.56,1.56,0,0,1,1.58.63c0.67,0.7,1.26,2.18.52,3-0.9,1-2.27,0-2.53-1a2.53,2.53,0,0,1,1.15-2.84c0.43-.23-0.21-0.37-0.46-0.24h0Z" transform="translate(-29.44 -29.3)"/><g class="cls-2"><path class="cls-3" d="M30.41,33a1,1,0,0,0,.93,1.24A0.53,0.53,0,0,0,31.9,34a0.66,0.66,0,0,0-.12-0.83,0.49,0.49,0,0,0-.68.13A0.62,0.62,0,0,0,31,34c0,0.23.48,0.13,0.59,0,0.45-.36.35-0.94-0.31-0.91a0.69,0.69,0,0,0-.54,1.17,0.49,0.49,0,0,0,.68-0.13,0.54,0.54,0,0,0-.37-0.86,0.49,0.49,0,0,0-.58.26,0.76,0.76,0,0,0,.58.85c0.18,0.07.62-.07,0.58-0.32a1.19,1.19,0,0,0-1.14-1,0.42,0.42,0,0,0-.5.33,2.25,2.25,0,0,0,1.72,1.69c0.46,0.13,1,0,1-.57l-0.7.25c0.32,0.45,1.35.72,1.39-.11a0.16,0.16,0,0,0-.08-0.16,1.75,1.75,0,0,0-1.52.16c-0.16.06-.45,0.23-0.23,0.41s0.6,0.44.92,0.65,0.85-.11.62-0.34l-0.63-.63-0.62.34a1.78,1.78,0,0,0,2-.11L33.28,35a5.43,5.43,0,0,1,.62,1.09c0.12,0.28.82,0.09,0.72-.19a3.16,3.16,0,0,1,1.05-3.58,0.21,0.21,0,0,0,.1-0.29c-0.9-1.6-2.59,2.27-2.82,2.68l0.68-.13a2.5,2.5,0,0,0-1.33-.93,0.49,0.49,0,0,0-.58.26l0,0.39,0.5-.27c-0.12,0-.24-0.8-0.43-0.95s-0.2-.06-0.28-0.12H31.18a0.76,0.76,0,0,1-.21-1l-0.5.27c0.2,0,.09,1,0.6,1.06A0.86,0.86,0,0,0,32,32.84l-0.7.07a2.08,2.08,0,0,0,.5.85,0.49,0.49,0,0,0,.68-0.13,0.53,0.53,0,0,0-.06-0.79c-0.18-.18-0.73-0.06-0.7.25a0.83,0.83,0,0,0,1.4.37l-0.59,0a0.65,0.65,0,0,0,.52.46c0.16,0.06.76-.12,0.55-0.37A0.67,0.67,0,0,0,33,33.2c-0.2-.05-0.61.05-0.58,0.32,0.06,0.55.62,0.51,1,.37l-0.4-.24L32.87,34l0.68,0a7.38,7.38,0,0,0,.74-1.71c0.1-.32-0.61-0.16-0.71,0a0.58,0.58,0,0,0-.11.57,0.29,0.29,0,0,0,.32.14c0.43,0,1-.45.52-0.88s-1.16.11-1.46,0.46a0.17,0.17,0,0,0,0,.27A0.75,0.75,0,0,0,34,32.45a0.21,0.21,0,0,0-.23-0.2,0.91,0.91,0,0,0-1.09.87c0,0.25.36,0.23,0.52,0.14,1.37-.72-0.64-1.65-0.81-0.54-0.19,1.3,2.35-.22.77-0.5-0.25,0-.87.33-0.43,0.44,0.62,0.16,1.53.15,1.6-.67a0.17,0.17,0,0,0-.15-0.18c-0.63-.11-2-0.63-2.57-0.21s0.06,1.33.46,1.71A0.44,0.44,0,0,0,32.8,33c0-.67-0.56-0.76-1.05-0.44-0.14.09-.2,0.31,0,0.36,0.38,0.08,1.08-.14.84-0.65L32,32.63a1.14,1.14,0,0,0,.81,0c0.21-.06.47-0.31,0.16-0.43l-0.1-.12c0.22-.19-0.08-0.33-0.26-0.31a0.57,0.57,0,0,0-.63.53L32.31,32l-0.59-.32L31,31.9l0.6,0.72c0.18,0.22.88,0,.67-0.3l-0.6-.72a0.47,0.47,0,0,0-.7.19c-0.08.87,0.83,0.82,1.44,0.67a0.39,0.39,0,0,0,.31-0.25H32.55l-0.26-.31c-0.36.31-.09,0.58,0.26,0.73l0.16-.43H32.46c-0.14,0-.7.07-0.58,0.32H32.2l0,0.36,0.16-.11-0.52.06a0.33,0.33,0,0,1,.21.41l0.7-.25a2.11,2.11,0,0,1-.41-0.45q-0.57-.57,0-0.55l0.7,0.12q0.64,0.06.11,0.1l-0.43.44,0.16,0.25L33.45,33l0.1-.33-0.23-.2h0.13v0.27l0.22,0,0.38-.21-0.17,0,0.32,0.14,0.07-.33H33.57a6.91,6.91,0,0,1-.7,1.59c-0.19.32,0.54,0.28,0.68,0l0.21-.34c0.15-.24-0.26-0.28-0.4-0.24l-0.2-.14-0.58.32,0.29,0.19,0.55-.37-0.23-.21a0.42,0.42,0,0,0-.59,0l-0.21-.3-0.7.25,0,0.44,0.68-.13A1.35,1.35,0,0,1,32,32.72c-0.09-.28-0.6-0.1-0.7.07a0.69,0.69,0,0,0-.53-1.05,0.48,0.48,0,0,0-.5.27,0.93,0.93,0,0,0,.63,1.45c0.59,0.24.36,1,1,1.07a0.48,0.48,0,0,0,.5-0.27l0-.39-0.58.26a2.08,2.08,0,0,1,1.09.79,0.49,0.49,0,0,0,.68-0.13l0.73-1.32a5.71,5.71,0,0,1,.74-1.11l0.1-.29a3.58,3.58,0,0,0-1.31,4l0.72-.19a5.86,5.86,0,0,0-.67-1.2,0.49,0.49,0,0,0-.63.07,1,1,0,0,1-.88-0.11c-0.16-.07-0.87.09-0.62,0.34l0.63,0.63,0.62-.34c-0.32-.2-0.62-0.41-0.92-0.65l-0.23.41a0.92,0.92,0,0,0,.76-0.62,0.44,0.44,0,0,0-.7.25,1.53,1.53,0,0,0-.73-0.57,1.27,1.27,0,0,1-.53-0.93l-0.5.33a0.73,0.73,0,0,1,.69.74L31.48,34l-0.28-.48-0.58.26,0.12,0.37L31.42,34l-0.29-.24,0.59,0,0.06-.38-0.68.13L31.21,34l0.56-.2a0.69,0.69,0,0,1-.63-0.88c0-.33-0.69-0.21-0.73.07h0Z" transform="translate(-29.44 -29.3)"/></g><g class="cls-2"><path class="cls-3" d="M33.86,38.94a1.52,1.52,0,0,0,.64.13c0.21,0,1.14-.19,1-0.56A1.25,1.25,0,0,0,35,37.81a1.17,1.17,0,0,0-1.11.1c-1.09.61-.74,1.91,0.55,1.66a1.5,1.5,0,0,0,1.2-.82c0.16-.62-0.54-0.85-1-0.92a1.21,1.21,0,0,0-1.17.46,0.73,0.73,0,0,0-.1.57c0,0.28.7,0.16,0.81,0.12,0.48-.15,1.44-0.81.62-1.3a1.64,1.64,0,0,0-2.06.84c-0.19.43,1.21,0.16,1.39-.11,1.41-2.12-2.26-1.8-1.69-.29,0.16,0.42,1.08.08,1.3-.11,1.12-.95-0.12-1.59-1.07-1l1,0.26L34,37.07a0.24,0.24,0,0,0,.1-0.36L34,36.32l-1,.47c0.49,0,.61.63,1,0.87a1.25,1.25,0,0,0,.88.12c0.5-.08,1.3-0.51.84-1.07a1.14,1.14,0,0,0-1.4.37,0.82,0.82,0,0,0,.49,1.19c0.36,0.15,1.73-.36,1.17-0.65a1.38,1.38,0,0,0-1.07,0,0.73,0.73,0,0,0-.64.51c0,2.42,4.12.31,2.27-.69a1.18,1.18,0,0,0-1.3.43,0.94,0.94,0,0,0,.08,1.11,1.17,1.17,0,0,0,1.11-.1,2.9,2.9,0,0,0,.64-0.41,0.25,0.25,0,0,0,.1-0.36c-0.56-.76-2.67.2-1.82,0.94s2.63-.3,1.81-1.33a1.19,1.19,0,0,0-1.25.19,0.56,0.56,0,0,0-.13.94,1.41,1.41,0,0,0,1.38-.1,0.71,0.71,0,0,0,.39-0.9,1.05,1.05,0,0,0-1.3-.13,0.7,0.7,0,0,0-.45.36c-0.06.35,0.24,0.43,0.54,0.42s1.06-.15,1-0.56a0.66,0.66,0,0,0-.49-0.6,1.27,1.27,0,0,0-1.25.34c-0.71.82-.53,2.5,0.79,2.3,0.13,0,1-.24.84-0.55a3.11,3.11,0,0,0-.5-0.74,1.18,1.18,0,0,0-1.25.19c-0.48.39-.46,1,0.2,1.14a1.37,1.37,0,0,0,1.61-.9c0.06-.55-1.1-0.13-1.29,0s-0.45.53-.13,0.81a1.51,1.51,0,0,0,1.4-.06,0.57,0.57,0,0,0,.45-0.45,0.59,0.59,0,0,0-.17-0.41,1,1,0,0,0-1,0c-0.46.22-1,.57-0.69,1.14,0.18,0.37.91,0.12,1.16,0l0.58-.32c0.11-.06.42-0.29,0.24-0.45-1-.82-3-0.2-2.83,1.21,0,0.39,1,.07,1.16,0a0.77,0.77,0,0,0,.51-0.61,0.15,0.15,0,0,0,0-.17,1.49,1.49,0,0,0-2,.59c-0.17.44,1.22,0.18,1.39-.11,1-1.7-2.39-1.88-2.48-.22,0,0.56,1.3.16,1.44-.21,0.32-.82-0.68-0.92-1.23-0.77s-1.36,1-.39,1.19c0.52,0.12,1.58-.21,1.52-0.87-0.08-.94-1.56-0.56-2.07-0.33l1,0.15a0.89,0.89,0,0,0-.1-1.07,1.18,1.18,0,0,0-1.25.19,1.22,1.22,0,0,0-.51,1c0,0.22.51,0.17,0.61,0.16a1.44,1.44,0,0,0,1.16-.6c0.35-.62-0.22-1.11-0.39-1.68-0.13-.42-1.41-0.08-1.45.3a3.81,3.81,0,0,0,3.29,3.71C37.16,41.23,38,39.62,38,37.91l-1.45.39v0.26c0,0.39,1.47.12,1.45-.39V37.91c0-.4-1.44-0.1-1.45.39a3.93,3.93,0,0,1-.23,1.43c-0.35.84-1,.62-1.54,0.14a3.28,3.28,0,0,1-1.46-2.61l-1.45.3c0.1,0.33.76,1.13,0.4,1.43L33,38.72l-0.19,0,0.61,0.16,0.2-.47-1.25.19a0.55,0.55,0,0,1,0,.73c-0.21.39,0.89,0.2,1,.15l0.26,0.09,0.73-.11,0.06-.08-0.68.27q-0.25,0-.18.3L35,39.78c0-.67-0.34.51-0.3,0.45l1.39-.11-0.11,0-0.73.11,0.08-.1,1.16,0q0-.54,0-0.28l0.24-.45-0.58.32,1.16,0a0.36,0.36,0,0,0-.21-0.25l-1,0,0.07,0.25,0.45-.45-0.25.09,0.86-.07-0.18-.08-1.29,0L36,39.34l0.73-.11A0.16,0.16,0,0,1,36.65,39l-1.25.19a1.69,1.69,0,0,1,.4.59l0.84-.55-0.18,0L37,39.31A1.32,1.32,0,0,1,37,37.59l-1.25.34,0.21,0.34,1-.56,0.32,0.12-0.45.36,0.12,0-0.86.07v0.33l0.58-.32-0.16,0h0.67L37.06,38l-1.25.19,0.83,0.07L36,38.56l-0.14.06,0.1-.36-0.38.23,1.11-.1a0.6,0.6,0,0,1,0-.77l-1.3.43a0.32,0.32,0,0,0,.5.26,0.81,0.81,0,0,1-.15-0.61l-0.64.51,0.21,0H34.62l0.19,0.1L36,37.62a0.48,0.48,0,0,1-.21-0.74l-1.4.37,0.05,0.09,0.86-.28a5.41,5.41,0,0,1-.72-0.78,1.76,1.76,0,0,0-1-.22,1.15,1.15,0,0,0-1,.47,0.91,0.91,0,0,0,.18.73l0.1-.36-0.34.23c-0.63.43,0.71,0.45,1,.26l0.11-.07-0.89.19-0.17.34,1.3-.11a0.45,0.45,0,0,1-.06-0.4L33,37.62a0.67,0.67,0,0,1-.17.81l1.39-.11,0-.11-0.73.11q0.25,0.08.07,0.32l0.58-.32-0.14,0,0.81,0.12,0.1-.39-1.17.46a1.26,1.26,0,0,0,.92.11,0.39,0.39,0,0,1,.12-0.4l-1.11.1a0.73,0.73,0,0,1,.38.54l1-.56-0.06,0c-0.38-.18-1.71.4-1.17,0.65h0Z" transform="translate(-29.44 -29.3)"/></g><g class="cls-2"><path class="cls-3" d="M36.89,37.21a3.23,3.23,0,0,0,2.58.45,1,1,0,0,0,.82-0.6A1.25,1.25,0,0,0,40,36.19a1.73,1.73,0,0,0-2,.12,1,1,0,0,0,.44,1.64,2,2,0,0,0,1.91-.57c0.39-.79-0.73-0.84-1.18-0.74s-1.57.62-1,1.27,1.53,0.13,2-.12a0.29,0.29,0,0,0,.18-0.19,0.65,0.65,0,0,0-.6-0.41c-0.19,0-1.4.12-1.32,0.46a0.77,0.77,0,0,0,1.08.64c0.36-.07,1.16-0.24,1.09-0.74l-1.45.39a0.61,0.61,0,0,0,.4.41A1.66,1.66,0,0,0,40.86,38a0.8,0.8,0,0,0,.23-1.09,1.45,1.45,0,0,0-1.44.33,0.55,0.55,0,0,0,0,.45C39.7,38,40.87,37.58,41,37.47L41.51,37c0.1-.09.08-0.17-0.05-0.19s-0.15-.34-0.07-0.45l-0.3.2,0.1,0-0.89.21c0.14,0,0,.39,0,0.4l1.36-.21c0.68-1-.54-1.38-1.32-1.2l0.58,0c-0.07-.94-1.13-0.78-1.75-0.49s-0.6,1,.22.89a1.75,1.75,0,0,0,1.09-.44,0.41,0.41,0,0,0-.25-0.7,1.77,1.77,0,0,0-2,.95c-0.08.3,1.26-.06,1.42-0.27-0.45.59-1,.09-0.46,0.27l0.26,0.06a2.43,2.43,0,0,0,.73,0,1.79,1.79,0,0,0,1.28-.59l-1.4.37a1.21,1.21,0,0,1-.64,2.07,1.36,1.36,0,0,0-.86.37c0,0.22.44,0.13,0.57,0.1a4.42,4.42,0,0,0,2.36-1.08,1.3,1.3,0,0,0-.06-1.94,1.55,1.55,0,0,0-1.4.37c0.4-.6,1.06-0.07.48-0.26l-0.26-.06a2.49,2.49,0,0,0-.7,0,1.92,1.92,0,0,0-1.33.59l1.42-.27a0.66,0.66,0,0,1,.3-0.45l-0.6.26,0.16,0-0.65.07q0.46,0.06.2,0.43l1-.33-0.15,0,0.36,0a0.24,0.24,0,0,1,0-.41l-0.6.26,0.12,0-0.65.07a0.53,0.53,0,0,1,.37.57,0.72,0.72,0,0,0,.58,0,1.76,1.76,0,0,1,.31.38,0.69,0.69,0,0,1-.13.63c-0.13.18,0.45,0.12,0.48,0.11A1.93,1.93,0,0,0,41.61,37a0.43,0.43,0,0,0,.07-0.7,1.26,1.26,0,0,0-1.05,0,1,1,0,0,0-.76.53,0.42,0.42,0,0,0,.39.52l-0.05-.19-0.51.43,1.38-.26V37l-1.44.33a0.61,0.61,0,0,1-.08.84l1.34-.31a0.39,0.39,0,0,1-.32-0.33,1.38,1.38,0,0,0-1.45.39l0,0.1,0.69-.24c0.22,0,0-.44,0-0.54l-1.32.46a0.33,0.33,0,0,1,.35.27L39,37.79l-0.13.07,0.69-.24a0.45,0.45,0,0,0-.17-0.27,0.4,0.4,0,0,1,.17-0.5l-0.87.27,0.17,0-0.36,0c0.18,0.06.55,0.47,0.25,0.63l0.87-.27c-0.48.07-.46-1.19-0.7-1.11l-0.72.14c0.26,0,.84.84,0.52,1.08l0.79-.31a2.42,2.42,0,0,1-1.3-.5,1.34,1.34,0,0,0-.93.1c-0.07,0-.64.25-0.44,0.37h0Z" transform="translate(-29.44 -29.3)"/></g><g class="cls-2"><path class="cls-3" d="M38.52,33.77A1.23,1.23,0,0,0,38.18,32a1,1,0,0,0-1.3.45,0.49,0.49,0,0,0,.26.58A1,1,0,0,0,38,33a1,1,0,0,0,0-1.9c-0.62-.37-2.38-0.5-2.19.66l1.4-.48a1.4,1.4,0,0,0-1.72-.49c-0.49.18-1,.68-0.54,1.17a1.72,1.72,0,0,0,1.69.37,1.12,1.12,0,0,0,.67-0.46c0.16-.33-0.18-0.69.1-1a0.29,0.29,0,0,0,0-.5,1.28,1.28,0,0,0-1.79.64c-0.07.25,0.28,0.34,0.45,0.35,0.5,0,1.87-.42,1.31-1.16s-1.51-.14-1.86.32C35.34,30.83,35.75,31,36,31c0.5,0,1.45-.22,1.42-0.88s-0.73-.63-1.16-0.54-1.15.51-.76,1a1,1,0,0,0,.67.29c0.53,0,.59-0.19,1,0.27a0.94,0.94,0,0,0,1,0,0.93,0.93,0,0,0,.69-1.13c-0.18-.48-1-0.18-1.31.06-0.89.82,0,1.69,1,1.52l-0.63-.34-0.08.77c-0.07.61,1.4,0.36,1.45-.17l0.08-.77c0-.32-0.4-0.38-0.63-0.34l0-.39-1.31.06q0,0.32.18,0.1l1,0A1.84,1.84,0,0,0,37.65,30a1.66,1.66,0,0,0-.53,0l-0.2,0H36.85l-0.27.32-0.63.05,0.73-.2H36.51l0.4,0.46L37,30.49l-0.39.29-0.51-.06,0.73-.2H36.67l0.45,0.35-0.81.26v-0.5a1.16,1.16,0,0,0-.41.84c0,0.33,0,.71.65,0l-0.18-.12q-0.85.11-.43,0.48c0.29,0.38,1.48,0,1.4-.48l-0.07.08-0.73.2a2.68,2.68,0,0,1,.92.7l0.87,0,0,0-1.3.45a0.71,0.71,0,0,1,.13,1c-0.39.57,1.07,0.48,1.36,0.06h0Z" transform="translate(-29.44 -29.3)"/></g></svg>