<?xml version="1.0" encoding="UTF-8" standalone="no"?>
<svg
   xmlns:dc="http://purl.org/dc/elements/1.1/"
   xmlns:cc="http://creativecommons.org/ns#"
   xmlns:rdf="http://www.w3.org/1999/02/22-rdf-syntax-ns#"
   xmlns:svg="http://www.w3.org/2000/svg"
   xmlns="http://www.w3.org/2000/svg"
   xmlns:sodipodi="http://sodipodi.sourceforge.net/DTD/sodipodi-0.dtd"
   xmlns:inkscape="http://www.inkscape.org/namespaces/inkscape"
   id="Layer_1"
   data-name="Layer 1"
   viewBox="0 0 99.999966 102.84"
   version="1.1"
   sodipodi:docname="flower_green.svg"
   width="99.999962"
   height="102.84"
   inkscape:version="0.92.2 2405546, 2018-03-11">
  <metadata
     id="metadata37">
    <rdf:RDF>
      <cc:Work
         rdf:about="">
        <dc:format>image/svg+xml</dc:format>
        <dc:type
           rdf:resource="http://purl.org/dc/dcmitype/StillImage" />
      </cc:Work>
    </rdf:RDF>
  </metadata>
  <sodipodi:namedview
     pagecolor="#ffffff"
     bordercolor="#666666"
     borderopacity="1"
     objecttolerance="10"
     gridtolerance="10"
     guidetolerance="10"
     inkscape:pageopacity="0"
     inkscape:pageshadow="2"
     inkscape:window-width="951"
     inkscape:window-height="1053"
     id="namedview35"
     showgrid="false"
     inkscape:zoom="2.4571107"
     inkscape:cx="86.622962"
     inkscape:cy="-9.4591389"
     inkscape:window-x="1923"
     inkscape:window-y="20"
     inkscape:window-maximized="0"
     inkscape:current-layer="Layer_1" />
  <defs
     id="defs4">
    <style
       id="style2">.cls-1{fill:#231f20;}.cls-2{opacity:0.45;}.cls-3{fill:#00a14b;}</style>
  </defs>
  <title
     id="title6">flower_green</title>
  <g
     id="g52"
     transform="matrix(11.222601,0,0,11.222601,0.00250734,0.70784917)">
    <path
       id="path8"
       transform="translate(-227.67,-108.54)"
       d="m 230.35,112.61 c -2.48,-0.77 -3.59,3 -1.8,4.38 1.62,1.28 4.85,-0.11 3.78,-2.37 a 0.58,0.58 0 0 0 -0.72,0.19 1.76,1.76 0 0 1 0,1.61 1.53,1.53 0 0 1 -2.45,0.24 2.49,2.49 0 0 1 -0.79,-1.77 c 0,-0.65 0.35,-2.32 1.41,-2 0.18,0.05 0.82,-0.22 0.59,-0.3 v 0 z"
       class="cls-1"
       inkscape:connector-curvature="0"
       style="fill:#231f20" />
    <path
       id="path10"
       transform="translate(-227.67,-108.54)"
       d="m 231.84,114.91 c 0.09,1.93 2.59,2.51 3.93,1.39 a 2.08,2.08 0 0 0 -1,-3.71 c -0.35,-0.05 -0.74,0.45 -0.25,0.52 a 1.62,1.62 0 0 1 1.08,2.5 1.66,1.66 0 0 1 -3,-0.77 c 0,-0.38 -0.75,-0.26 -0.73,0.06 v 0 z"
       class="cls-1"
       inkscape:connector-curvature="0"
       style="fill:#231f20" />
    <path
       id="path12"
       transform="translate(-227.67,-108.54)"
       d="m 234.43,112.84 a 2.26,2.26 0 0 0 0.51,-4 c -1.36,-0.88 -3.63,0.1 -3.15,1.9 0.07,0.27 0.8,0.07 0.72,-0.19 a 1.26,1.26 0 0 1 0.41,-1.38 1.34,1.34 0 0 1 1.87,0.44 c 0.53,0.72 0.65,2.49 -0.46,2.81 -0.43,0.12 -0.33,0.51 0.1,0.39 v 0 z"
       class="cls-1"
       inkscape:connector-curvature="0"
       style="fill:#231f20" />
    <path
       id="path14"
       transform="translate(-227.67,-108.54)"
       d="m 232.47,110.43 a 2.66,2.66 0 0 0 -2,-1.83 2,2 0 0 0 -1.67,3.53 2.6,2.6 0 0 0 2.52,0.52 c 0.42,-0.1 0.37,-0.3 -0.05,-0.2 a 2.09,2.09 0 0 1 -2.36,-2.46 1.1,1.1 0 0 1 1.73,-0.88 3.07,3.07 0 0 1 1.16,1.5 0.7,0.7 0 0 0 0.72,-0.19 v 0 z"
       class="cls-1"
       inkscape:connector-curvature="0"
       style="fill:#231f20" />
    <path
       id="path16"
       transform="translate(-227.67,-108.54)"
       d="m 232.69,110.49 a 2.25,2.25 0 0 0 -2,2.65 2.59,2.59 0 0 0 3.34,1.59 1.58,1.58 0 0 0 0.21,-2.91 c -0.67,-0.44 -2.94,-1.16 -3.07,0.23 a 0.65,0.65 0 0 0 0.72,-0.19 c 0,-0.25 0.44,-0.24 0.59,-0.22 a 2.41,2.41 0 0 1 0.67,0.23 2.25,2.25 0 0 1 0.91,0.68 1.61,1.61 0 0 1 0.36,1 1.15,1.15 0 0 1 -1.63,0.87 2.22,2.22 0 0 1 -1.39,-1.58 1.78,1.78 0 0 1 1.2,-2.07 c 0.3,0 0.64,-0.36 0.13,-0.28 v 0 z"
       class="cls-1"
       inkscape:connector-curvature="0"
       style="fill:#231f20" />
    <g
       id="g20"
       class="cls-2"
       style="opacity:0.45">
      <path
         id="path18"
         transform="translate(-227.67,-108.54)"
         d="m 230,114.38 c 0.06,-0.69 -1,-0.62 -1.34,-0.35 -0.66,0.47 -0.36,1.38 0,1.91 a 1,1 0 0 0 1.35,-0.25 1.31,1.31 0 0 0 0.16,-1.06 l -0.42,0.58 a 1.21,1.21 0 0 0 0.74,-0.84 0.33,0.33 0 0 0 -0.17,-0.33 c -1,-0.49 -2.77,0.59 -1.52,1.45 a 1,1 0 0 0 1.16,-0.21 1.53,1.53 0 0 0 -0.2,-2.31 c -0.45,-0.36 -1.74,0.28 -1.13,0.79 a 1.86,1.86 0 0 0 2.64,-0.57 h -1.42 a 3.4,3.4 0 0 0 0.35,2.66 c 0.25,0.44 1.17,0.09 1.35,-0.25 a 1,1 0 0 0 0.11,-0.81 c -0.14,-0.6 -1.39,-0.24 -1.45,0.26 a 1,1 0 0 0 0.34,1 1,1 0 0 0 1.26,-0.13 c 0.45,-0.53 0.37,-1.15 -0.42,-1.17 a 1.14,1.14 0 0 0 -1.25,1.13 c 0,0.74 1.32,0.41 1.46,-0.14 l 0.26,-1 -1.4,0.37 a 0.46,0.46 0 0 1 0.08,0.45 q 0,0.45 -0.49,0 c 0.05,-0.59 -0.92,-0.44 -1.2,-0.22 -0.9,0.71 -0.15,1.88 0.75,2.21 0.9,0.33 2.43,-0.27 2,-1.34 -0.27,-0.59 -1.7,-0.16 -1.45,0.39 h 0.36 a 1.43,1.43 0 0 1 -0.33,-0.3 1.87,1.87 0 0 0 -0.34,-0.42 l -1.2,-0.22 c -0.18,2 4.6,1.12 3.2,-1.24 -0.29,-0.49 -1.28,-0.06 -1.4,0.37 l -0.26,1 1.46,-0.14 a 0.65,0.65 0 0 0 0,-0.22 l -0.73,0.2 h 0.17 l -0.4,-0.18 v 0 l 1.26,-0.13 a 0.42,0.42 0 0 1 -0.22,-0.5 l -1.45,0.26 v 0.3 l 1.35,-0.25 a 2.79,2.79 0 0 1 -0.22,-2.18 c 0.19,-0.68 -1.21,-0.34 -1.42,0 q 0,0.11 -0.14,-0.1 l -1.13,0.79 a 0.83,0.83 0 0 1 0.13,1.16 l 1.16,-0.21 -0.74,0.13 -0.26,-0.22 0.11,-0.06 a 0.59,0.59 0 0 0 -0.42,0.58 0.52,0.52 0 0 1 -0.08,0.56 l 1.35,-0.25 a 1.29,1.29 0 0 1 -0.31,-0.83 l -0.86,0.31 h 0.08 l -0.4,-0.18 v -0.11 c -0.06,0.69 1.41,0.46 1.46,-0.14 v 0 z"
         class="cls-3"
         inkscape:connector-curvature="0"
         style="fill:#00a14b" />
    </g>
    <g
       id="g24"
       class="cls-2"
       style="opacity:0.45">
      <path
         id="path22"
         transform="translate(-227.67,-108.54)"
         d="m 229.15,110.89 a 1.22,1.22 0 0 0 0.29,0.67 1,1 0 0 0 1.26,-0.15 1.67,1.67 0 0 0 0.51,-1.5 c -0.09,-0.56 -1.24,-0.14 -1.4,0.16 a 0.87,0.87 0 0 0 0.05,1.24 1.29,1.29 0 0 0 1.4,-0.13 0.74,0.74 0 0 0 0.23,-1 2.35,2.35 0 0 0 -1.07,-0.79 h -1.41 a 5.12,5.12 0 0 0 0.1,2.92 1.06,1.06 0 0 0 1.78,0.15 3.24,3.24 0 0 0 0.45,-1.07 5.82,5.82 0 0 0 0.49,-1.51 c 0,-0.92 -1.13,-0.81 -1.66,-0.47 -0.24,0.15 -0.38,0.43 -0.11,0.63 a 1.08,1.08 0 0 0 1,-0.12 l 0.11,-0.07 -0.73,0.2 a 4,4 0 0 0 -0.45,1.17 l -0.2,0.57 c 0,0.12 -0.27,0.48 -0.11,0.4 l 0.89,-0.17 a 3.17,3.17 0 0 1 -0.26,-1.26 5.08,5.08 0 0 1 0.14,-1.51 c 0.15,-0.63 -1.23,-0.31 -1.41,0 a 0.57,0.57 0 0 0 0.21,0.81 c 0.15,0.1 0.33,0.12 0.48,0.21 a 1,1 0 0 0 0.49,0.37 l 0.55,-0.19 h -0.14 l 0.48,0.07 a 0.37,0.37 0 0 1 0,-0.49 l -1.4,0.16 a 0.88,0.88 0 0 1 -0.23,0.81 l 1.26,-0.15 a 0.74,0.74 0 0 1 -0.18,-0.47 c -0.06,-0.54 -1.51,-0.21 -1.45,0.39 v 0 z"
         class="cls-3"
         inkscape:connector-curvature="0"
         style="fill:#00a14b" />
    </g>
    <g
       id="g28"
       class="cls-2"
       style="opacity:0.45">
      <path
         id="path26"
         transform="translate(-227.67,-108.54)"
         d="m 232.16,115.26 c 0.32,1.28 2.75,1.14 2.42,-0.31 -0.12,-0.53 -1.21,0 -1.4,0.19 a 0.58,0.58 0 0 0 0.41,1 1.37,1.37 0 0 0 1.51,-0.8 c 0.12,-0.51 -1,-0.23 -1.17,-0.11 -0.62,0.43 -0.66,1.22 0.14,1.44 a 1.22,1.22 0 0 0 1.12,-0.38 3.8,3.8 0 0 0 0.64,-1.61 c 0,-0.24 -0.25,-0.31 -0.44,-0.31 A 1.67,1.67 0 0 0 234,115 c -0.15,0.21 0,0.35 0.23,0.39 a 1.37,1.37 0 0 0 0.89,-0.18 0.7,0.7 0 0 0 0.34,-1.09 c -0.31,-0.36 -1.7,0.13 -1.35,0.56 a 1.14,1.14 0 0 0 1.77,-0.61 c 0,-0.44 -1.4,-0.13 -1.45,0.29 l -0.05,0.44 c -0.06,0.54 1,0.22 1.17,0.11 0.53,-0.27 0.76,-1 0.1,-1.32 a 1.11,1.11 0 0 0 -1.3,0.44 2.27,2.27 0 0 0 0.55,2 1.06,1.06 0 0 0 1.4,-0.37 2.57,2.57 0 0 0 -0.8,-2 c -0.36,-0.34 -1.72,0.2 -1.35,0.56 a 2.16,2.16 0 0 1 0.7,1.66 l 1.4,-0.37 a 1.85,1.85 0 0 1 -0.45,-1.63 l -1.3,0.44 a 2.37,2.37 0 0 0 0.16,0.22 l 1.17,0.11 0.05,-0.44 -1.45,0.29 0.15,-0.19 0.55,-0.18 h 0.33 l -1.35,0.56 c 0.13,0.15 0,0.21 0.11,0.12 l 1.12,0.21 -0.1,0.05 -0.57,0.11 h 0.13 l -0.44,-0.31 a 3.26,3.26 0 0 1 -0.54,1.41 l 1.12,-0.38 c -0.22,-0.06 0.12,-0.45 -0.14,-0.27 l -1.17,-0.11 0.29,-0.12 h 0.54 a 0.32,0.32 0 0 1 0,-0.18 l -1.4,0.19 a 0.43,0.43 0 0 1 0,0.39 l 1,-0.39 a 0.52,0.52 0 0 1 -0.45,-0.47 c -0.12,-0.48 -1.57,-0.11 -1.45,0.39 v 0 z"
         class="cls-3"
         inkscape:connector-curvature="0"
         style="fill:#00a14b" />
    </g>
    <g
       id="g32"
       class="cls-2"
       style="opacity:0.45">
      <path
         id="path30"
         transform="translate(-227.67,-108.54)"
         d="m 232.55,111 a 4.94,4.94 0 0 0 1.19,-0.24 l -1,0.06 c -0.08,0.45 0,0.84 0.5,0.9 a 2,2 0 0 0 1.32,-0.37 0.56,0.56 0 0 0 0,-0.83 1.49,1.49 0 0 0 -1.26,0 1.06,1.06 0 0 0 -0.83,0.64 0.57,0.57 0 0 0 0.7,0.53 c 0.41,0 2.12,-0.56 1.22,-1.16 -0.21,-0.14 -1.46,0.11 -1.41,0.43 a 0.94,0.94 0 0 0 1.27,0.9 c 0.65,-0.12 1.52,-0.57 1,-1.35 a 0.68,0.68 0 0 0 -0.21,-0.24 l 0.06,-0.07 a 1.16,1.16 0 0 0 0.08,-0.37 0.56,0.56 0 0 0 -0.54,-0.44 1.89,1.89 0 0 0 -1.86,0.86 l 1.4,-0.37 a 1.81,1.81 0 0 0 -1.2,-0.09 h 0.58 a 1,1 0 0 0 -0.22,-0.78 l -1.32,0.46 a 2.38,2.38 0 0 1 1.76,2.39 0.14,0.14 0 0 0 0.12,0.07 1.57,1.57 0 0 0 1.65,-0.58 2.48,2.48 0 0 0 -0.42,-1.32 9.08,9.08 0 0 0 -0.6,-1.14 0.68,0.68 0 0 0 -0.69,-0.41 2.07,2.07 0 0 0 -1.08,0.31 c -0.59,0.4 -0.65,1.51 -0.68,2.16 0,0.16 1.43,0 1.45,-0.39 a 2.94,2.94 0 0 1 0.48,-1.88 l -1.13,0.34 a 3.53,3.53 0 0 1 0.75,1.29 c 0.15,0.33 0.64,1.12 0.39,1.46 l 0.3,-0.2 -0.12,0.05 1,-0.2 a 6.55,6.55 0 0 0 -0.15,-0.91 2.55,2.55 0 0 0 -0.46,-0.75 2.59,2.59 0 0 0 -1.41,-0.84 c -0.16,0 -1.47,0.26 -1.32,0.46 a 1,1 0 0 1 0.22,0.78 0.76,0.76 0 0 0 0.58,0 l 0.11,0.09 a 1.55,1.55 0 0 0 1.4,-0.37 q 0.19,-0.32 -0.27,-0.07 -0.51,-0.05 -0.23,0.2 c -0.05,0.14 0.14,0.21 0,0.37 a 0.14,0.14 0 0 0 -0.07,0.12 0.79,0.79 0 0 1 0.19,1.09 l 0.3,-0.2 -0.13,0.06 0.73,-0.2 a 1.18,1.18 0 0 0 -0.17,-0.36 1.73,1.73 0 0 1 -0.11,-0.43 L 233,111 c 0.07,0 0.25,0.31 0.13,0.39 l 0.69,-0.24 q 0.22,-0.09 0.08,-0.26 0.21,-0.63 -0.78,0 a 0.4,0.4 0 0 1 0.16,0.28 0.39,0.39 0 0 1 -0.08,0.32 l 0.86,-0.37 a 1.21,1.21 0 0 0 0.14,-0.75 c 0,-0.2 -0.95,0.05 -1,0.06 h -0.06 a 1.56,1.56 0 0 0 -1,0.33 c -0.15,0.24 0.13,0.21 0.33,0.19 v 0 z"
         class="cls-3"
         inkscape:connector-curvature="0"
         style="fill:#00a14b" />
    </g>
  </g>
</svg>
