<?xml version="1.0" encoding="UTF-8" standalone="no"?>
<svg
   xmlns:dc="http://purl.org/dc/elements/1.1/"
   xmlns:cc="http://creativecommons.org/ns#"
   xmlns:rdf="http://www.w3.org/1999/02/22-rdf-syntax-ns#"
   xmlns:svg="http://www.w3.org/2000/svg"
   xmlns="http://www.w3.org/2000/svg"
   xmlns:sodipodi="http://sodipodi.sourceforge.net/DTD/sodipodi-0.dtd"
   xmlns:inkscape="http://www.inkscape.org/namespaces/inkscape"
   id="Layer_1"
   data-name="Layer 1"
   viewBox="0 0 100.00041 88.904004"
   version="1.1"
   sodipodi:docname="flower_blue.svg"
   width="100.0004"
   height="88.904007"
   inkscape:version="0.92.2 2405546, 2018-03-11">
  <metadata
     id="metadata37">
    <rdf:RDF>
      <cc:Work
         rdf:about="">
        <dc:format>image/svg+xml</dc:format>
        <dc:type
           rdf:resource="http://purl.org/dc/dcmitype/StillImage" />
        <dc:title>flower_blue</dc:title>
      </cc:Work>
    </rdf:RDF>
  </metadata>
  <sodipodi:namedview
     pagecolor="#ffffff"
     bordercolor="#666666"
     borderopacity="1"
     objecttolerance="10"
     gridtolerance="10"
     guidetolerance="10"
     inkscape:pageopacity="0"
     inkscape:pageshadow="2"
     inkscape:window-width="951"
     inkscape:window-height="1053"
     id="namedview35"
     showgrid="false"
     inkscape:zoom="2.423901"
     inkscape:cx="28.921268"
     inkscape:cy="10.176841"
     inkscape:window-x="1923"
     inkscape:window-y="20"
     inkscape:window-maximized="0"
     inkscape:current-layer="Layer_1" />
  <defs
     id="defs4">
    <style
       id="style2">.cls-1{fill:#231f20;}.cls-2{opacity:0.45;}.cls-3{fill:#21409a;}</style>
  </defs>
  <title
     id="title6">flower_blue</title>
  <g
     id="g52"
     transform="matrix(13.48327,0,0,13.48327,0.25414995,0.39660557)">
    <path
       transform="translate(-320.5,-40.26)"
       id="path8"
       d="m 322.58,42.87 a 3,3 0 0 0 -1.89,1.37 1.57,1.57 0 0 0 0.37,2 c 1,0.88 3.64,0.91 3.64,-0.92 0,-0.38 -0.73,-0.27 -0.73,0.06 0,1.36 -2,1 -2.55,0.21 -0.67,-1 0.41,-1.91 1.29,-2.19 0.44,-0.14 0.31,-0.64 -0.13,-0.49 v 0 z"
       class="cls-1"
       inkscape:connector-curvature="0"
       style="fill:#231f20" />
    <path
       transform="translate(-320.5,-40.26)"
       id="path10"
       d="m 324.91,45.16 a 0.62,0.62 0 0 0 -0.91,0.76 1.94,1.94 0 0 0 2,0.85 1.86,1.86 0 0 0 1.84,-1.39 1.36,1.36 0 0 0 -1.61,-1.44 c -0.22,0 -0.78,0.38 -0.3,0.34 a 1.11,1.11 0 0 1 0.58,2.09 1.59,1.59 0 0 1 -1.39,-0.2 c -0.08,-0.06 -0.71,-0.74 -0.51,-0.82 h -0.47 0.08 c 0.2,0.11 0.81,-0.18 0.68,-0.26 v 0 z"
       class="cls-1"
       inkscape:connector-curvature="0"
       style="fill:#231f20" />
    <path
       transform="translate(-320.5,-40.26)"
       id="path12"
       d="m 325.66,44 a 1.31,1.31 0 0 0 1.7,-0.07 1.74,1.74 0 0 0 0.13,-2.18 1.85,1.85 0 0 0 -1.9,-0.92 1.57,1.57 0 0 0 -1.36,1.39 c 0,0.35 0.72,0.22 0.73,-0.07 0,-1 1.14,-1 1.69,-0.36 a 1.93,1.93 0 0 1 0.41,0.89 c 0.06,0.31 -0.08,1.56 -0.73,1 -0.22,-0.19 -0.9,0.1 -0.67,0.3 v 0 z"
       class="cls-1"
       inkscape:connector-curvature="0"
       style="fill:#231f20" />
    <path
       transform="translate(-320.5,-40.26)"
       id="path14"
       d="m 322.6,43.1 c -0.8,0.19 -0.88,-2.25 0.26,-2.35 0.9,-0.08 1.27,1.25 1.44,1.91 0.07,0.28 0.8,0.09 0.72,-0.19 a 3.17,3.17 0 0 0 -1.09,-2 1.68,1.68 0 0 0 -1.89,0.11 2,2 0 0 0 -0.79,1.9 1.16,1.16 0 0 0 1.45,1 c 0.44,-0.1 0.33,-0.51 -0.11,-0.41 v 0 z"
       class="cls-1"
       inkscape:connector-curvature="0"
       style="fill:#231f20" />
    <path
       transform="translate(-320.5,-40.26)"
       id="path16"
       d="m 324.54,42.48 a 1.38,1.38 0 0 0 -1.83,1.22 1.64,1.64 0 0 0 1.8,1.61 1.46,1.46 0 0 0 1.3,-1.9 1.43,1.43 0 0 0 -2.1,-0.42 c -0.39,0.29 0.18,0.59 0.49,0.36 a 0.68,0.68 0 0 1 0.95,0.41 0.79,0.79 0 0 1 -0.76,1 1.12,1.12 0 0 1 -0.9,-0.79 c -0.11,-0.36 0.11,-1.2 0.63,-1 0.32,0.14 0.84,-0.32 0.41,-0.51 v 0 z"
       class="cls-1"
       inkscape:connector-curvature="0"
       style="fill:#231f20" />
    <g
       id="g20"
       class="cls-2"
       style="opacity:0.45">
      <path
         id="path18"
         transform="translate(-320.5,-40.26)"
         d="m 321.55,45.88 a 0.63,0.63 0 0 0 0.64,0.31 c 0.23,0 1.23,-0.12 1.19,-0.49 a 0.86,0.86 0 0 0 -0.55,-0.73 1.37,1.37 0 0 0 -0.93,0.09 c -0.09,0 -0.63,0.25 -0.43,0.41 0.48,0.37 2.26,-0.07 2,-0.86 a 0.43,0.43 0 0 0 -0.41,-0.09 3.24,3.24 0 0 0 -1.32,0.4 c -0.4,0.22 0,0.32 0.24,0.31 a 1.46,1.46 0 0 0 1.24,-0.56 c 0.16,-0.44 -0.39,-0.5 -0.69,-0.48 a 1.8,1.8 0 0 0 -1.28,0.58 0.65,0.65 0 0 0 0.23,1 1.58,1.58 0 0 0 1.25,-0.34 v 0 a 0.15,0.15 0 0 0 0.07,-0.14 c -0.35,-0.45 -1.34,-0.09 -1.67,0.23 0,0 -0.11,0.14 0,0.19 a 1.59,1.59 0 0 0 1.51,-0.27 1.73,1.73 0 0 0 0.39,-1.3 c 0,-0.57 -0.34,-0.63 -0.82,-0.54 a 1.54,1.54 0 0 0 -0.79,0.32 c -0.22,0.23 -0.34,0.59 -0.55,0.85 l 1.37,-0.19 v 0 l -0.69,0.25 h -0.36 a 1.2,1.2 0 0 1 0.41,0.67 1.54,1.54 0 0 0 2.17,0.49 0.43,0.43 0 0 0 0.31,-0.29 0.19,0.19 0 0 0 -0.1,-0.19 1.27,1.27 0 0 0 -0.93,0.09 h -0.06 c -0.05,0 -0.57,0.22 -0.47,0.35 0.39,0.59 2,0.24 2.19,-0.4 a 0.54,0.54 0 0 0 -0.59,-0.62 2,2 0 0 0 -1.48,0.46 c -0.24,0.22 0.22,0.24 0.34,0.23 a 1.71,1.71 0 0 0 1,-0.34 c -0.54,0.49 -1,0 -0.67,0.45 v 0.12 q 1.11,0.07 0.7,-0.29 l -0.47,0.35 h 0.06 L 322.67,46 v 0 l 0.31,-0.29 -0.11,0.05 1,-0.19 a 1.28,1.28 0 0 1 -0.86,-0.68 1.25,1.25 0 0 0 -0.41,-0.66 1.61,1.61 0 0 0 -1.71,0.5 c -0.11,0.21 0.43,0.15 0.49,0.15 a 1.52,1.52 0 0 0 0.88,-0.33 4.56,4.56 0 0 0 0.61,-0.92 l -1,0.42 h 0.09 -0.37 a 1.52,1.52 0 0 1 -0.15,1.45 l 0.79,-0.32 h -0.09 0.55 -0.08 v 0.19 l 0.06,-0.06 -0.79,0.32 h 0.09 -0.46 0.09 l -0.13,-0.08 0.05,0.07 0.07,-0.14 v 0 l 1.25,-0.34 a 0.42,0.42 0 0 1 -0.09,-0.33 c 0,-0.22 0.18,-0.34 -0.12,-0.23 l -0.72,0.13 c 0.08,0 0,0.21 0.09,0.15 l 0.87,-0.27 h -0.09 L 322.86,45 322.44,45.14 322,45 a 0.14,0.14 0 0 1 0,0.15 q -0.15,0.48 0.8,-0.18 l -1.37,0.49 a 0.7,0.7 0 0 1 0.46,0.63 L 323.08,45.6 323,45.49 c -0.21,-0.35 -1.56,0.19 -1.45,0.39 z"
         class="cls-3"
         inkscape:connector-curvature="0"
         style="fill:#21409a" />
    </g>
    <g
       id="g24"
       class="cls-2"
       style="opacity:0.45">
      <path
         id="path22"
         transform="translate(-320.5,-40.26)"
         d="m 325.88,45.24 a 0.37,0.37 0 0 0 -0.09,-0.24 1.05,1.05 0 0 0 -1.15,0.05 c -0.34,0.2 -0.88,0.79 -0.18,1 0.44,0.1 1.46,-0.14 1.41,-0.72 -0.05,-0.58 -1.25,0.09 -1.39,0.22 a 0.48,0.48 0 0 0 -0.1,0.69 1.28,1.28 0 0 0 0.69,0.21 1.84,1.84 0 0 0 1,0.11 3.87,3.87 0 0 0 1,-0.4 l -0.89,0.19 c 0.53,0.07 1.83,0 1.71,-0.83 0,-0.2 -0.49,-0.14 -0.6,-0.12 a 0.78,0.78 0 0 1 -0.43,-0.11 l -0.25,0.4 a 2,2 0 0 0 0.52,-0.4 l -1.39,0.22 c 0.13,0.61 1.44,0.18 1.67,-0.13 0.55,-0.71 -0.79,-0.73 -1.15,-0.66 l 0.6,0.2 c 0.05,-0.13 -0.06,-0.47 0,-0.54 l -1.12,0.36 h 0.08 a 1.51,1.51 0 0 0 1,-0.27 c 0.22,-0.18 0.19,-0.35 -0.1,-0.39 a 1.54,1.54 0 0 0 -1.15,0.31 0.52,0.52 0 0 0 -0.2,0.29 2.33,2.33 0 0 1 0,0.47 c -0.11,0.27 0.51,0.22 0.6,0.2 a 0.3,0.3 0 1 1 0,0.11 l 0.59,-0.3 h -0.09 0.66 v 0 c -0.09,-0.43 -1.23,0.05 -1.39,0.22 l -0.06,0.06 c -0.06,0 -0.46,0.29 -0.25,0.4 A 2.41,2.41 0 0 0 327,46 l -0.6,-0.12 h 0.12 l 0.73,-0.2 c 0.12,0 0,0 -0.07,0 a 1.44,1.44 0 0 0 -0.37,0 1.86,1.86 0 0 0 -0.74,0.23 c -0.38,0.22 0.27,-0.06 0.27,0 a 0.76,0.76 0 0 0 -0.2,-0.09 c -0.16,0 -0.66,0 -0.31,-0.29 l -1.39,0.22 v 0.1 l 0.06,-0.17 -0.07,0.08 0.78,-0.35 h -0.1 l 0.56,0.06 a 0.15,0.15 0 0 0 -0.16,-0.09 l -1.15,0.05 a 0.37,0.37 0 0 1 0.09,0.24 c 0.07,0.37 1.52,0 1.45,-0.39 v 0 z"
         class="cls-3"
         inkscape:connector-curvature="0"
         style="fill:#21409a" />
    </g>
    <g
       id="g28"
       class="cls-2"
       style="opacity:0.45">
      <path
         id="path26"
         transform="translate(-320.5,-40.26)"
         d="m 324.23,42.22 a 0.84,0.84 0 0 0 0.62,1 0.93,0.93 0 0 0 1.15,-0.72 l -1.4,0.37 c 0.43,0.75 1.77,1.34 2.49,0.67 0.72,-0.67 -0.19,-1.76 -0.82,-2.13 -0.39,-0.24 -1.46,0 -1.28,0.62 a 3.36,3.36 0 0 0 0.3,0.74 1.51,1.51 0 0 1 0.38,0.65 c -0.33,0.76 1.13,0.78 1.39,0.17 0.26,-0.61 -0.43,-1.29 -0.62,-2 l -1.28,0.62 a 1.76,1.76 0 0 1 0.5,0.42 c 0.06,0.08 0.1,0.17 0.16,0.24 0.19,0.24 -0.18,0.17 0.32,0 l 0.57,-0.1 a 1.1,1.1 0 0 1 -0.79,-0.54 0.86,0.86 0 0 0 -1.4,0.37 v 0.08 l 0.41,-0.49 h -0.08 l 0.74,-0.06 q 0.17,0.17 0.1,-0.07 c 0.06,-0.76 -1.42,-0.56 -1.47,0.11 v 0 z"
         class="cls-3"
         inkscape:connector-curvature="0"
         style="fill:#21409a" />
    </g>
    <g
       id="g32"
       class="cls-2"
       style="opacity:0.45">
      <path
         id="path30"
         transform="translate(-320.5,-40.26)"
         d="m 323.45,40.93 a 2.23,2.23 0 0 0 -1.26,0.31 0.82,0.82 0 0 0 -0.35,0.91 0.79,0.79 0 0 0 0.34,0.79 2,2 0 0 0 1.26,-0.18 1.32,1.32 0 0 0 0.78,-1.72 c -0.3,-0.67 -1.53,-0.27 -2,0 -0.22,0.15 -0.2,0.27 0.08,0.29 a 1.85,1.85 0 0 0 1,-0.27 l -0.73,0.18 0.11,0.1 c 0,0.1 0.06,0.19 0.08,0.3 a 5.09,5.09 0 0 1 -0.07,0.75 l -0.06,0.11 0.7,-0.19 a 0.9,0.9 0 0 0 0,-0.26 1.05,1.05 0 0 1 0.06,-0.91 l -0.41,0.21 h 0.12 l -0.72,0.14 h 0.12 a 1.82,1.82 0 0 0 1,-0.27 c 0.23,-0.15 0.2,-0.27 -0.08,-0.29 v 0 z"
         class="cls-3"
         inkscape:connector-curvature="0"
         style="fill:#21409a" />
    </g>
  </g>
</svg>
