<svg id="Layer_1" data-name="Layer 1" xmlns="http://www.w3.org/2000/svg" viewBox="0 0 7.95 9.3"><defs><style>.cls-1{fill:#231f20;}.cls-2{opacity:0.45;}.cls-3{fill:#ffde17;}</style></defs><title>flower_yellow</title><path class="cls-1" d="M189.73,39.45l0.15-.23C190,39,189.61,39,189.5,39c-2.09.64-1.66,4.29,0.55,4.34a3.11,3.11,0,0,0,2.47-1.08,2,2,0,0,0-.19-2.67c-0.18-.17-0.86.11-0.67,0.28A1.78,1.78,0,0,1,190.59,43,1.47,1.47,0,0,1,189,41.58c-0.17-.68-0.29-1.92.59-2.19l-0.38-.18-0.15.23c-0.18.27,0.55,0.2,0.67,0h0Z" transform="translate(-186.52 -34.08)"/><path class="cls-1" d="M189.69,39.33c-1.11-.71-2.62-2-2.41-3.49a1.1,1.1,0,0,1,1.83-.85,3.78,3.78,0,0,1,.91,2.06c0.05,0.25.78,0.06,0.72-.19-0.23-1.05-.59-2.28-1.77-2.6a2,2,0,0,0-1.76.45c-1.89,1.68.45,4,1.9,5,0.2,0.13.87-.16,0.58-0.35h0Z" transform="translate(-186.52 -34.08)"/><path class="cls-1" d="M190.8,36.36a3.72,3.72,0,0,1,.29-2.17l-0.65.21a2.52,2.52,0,0,1,1.66,1.24,1.26,1.26,0,0,1-.46,1.64c-0.48.18,0,.31,0.26,0.2a1.51,1.51,0,0,0,1-1.61A2.41,2.41,0,0,0,191,34.1a0.66,0.66,0,0,0-.65.21,3.85,3.85,0,0,0-.3,2.24c0,0.17.76,0,.72-0.19h0Z" transform="translate(-186.52 -34.08)"/><path class="cls-1" d="M191.7,37.43a2.38,2.38,0,0,1,2,1.46,1.32,1.32,0,0,1-.53,1.45,1.19,1.19,0,0,1-1.5-.49c-0.16-.23-0.86,0-0.67.3a2,2,0,0,0,3.27-.23c0.83-1.5-.82-2.68-2.11-2.93-0.26-.05-0.86.35-0.43,0.43h0Z" transform="translate(-186.52 -34.08)"/><path class="cls-1" d="M190.95,36.87a1.49,1.49,0,0,0-2.3,1.17,1.9,1.9,0,0,0,2.18,2.08,1.68,1.68,0,0,0,1.21-.8,2.08,2.08,0,0,0-.5-2.06,1.46,1.46,0,0,0-1.42-.83,0.92,0.92,0,0,0-.9.87c0,0.22.74,0.07,0.72-.19,0-.68.79,0.26,0.81,0.28a4.1,4.1,0,0,1,.54.9c0.24,0.59.17,1.66-.77,1.46a1.59,1.59,0,0,1-1-1.07,1.94,1.94,0,0,1-.11-0.82c0-.34.29-1.19,0.9-0.71,0.19,0.15.86-.13,0.67-0.28h0Z" transform="translate(-186.52 -34.08)"/><g class="cls-2"><path class="cls-3" d="M188.94,41.78a0.9,0.9,0,0,0,.55.84,1.42,1.42,0,0,0,1.4-.37c0.38-.94-1.07-0.78-1.53-0.6-0.09,0-.63.24-0.43,0.41a1.71,1.71,0,0,0,1.94-.34c0.57-.68-0.37-1.18-0.89-1.38l-0.18.37c0.69-.33.67-0.82,0.2-1.37a1.31,1.31,0,0,0-1.41.44c0,1.11,0,2.87,1.46,3,1.05,0.09,2.78-.67,2.17-2-0.16-.33-1.08,0-1.28.17a1.19,1.19,0,0,0-.45.45l1.43-.26c0.19-.56.13-1-0.55-1a1.51,1.51,0,0,0-1.39.63c-0.08.3,1.34,0.11,1.43-.26q-1.21-.16-0.82.44a1.15,1.15,0,0,1-.09.49c-0.1.31,1.26,0,1.43-.26l0.13-.15-1.28.17a1.13,1.13,0,0,1,.13.47c0,0.11-.23.55-0.22,0.6q0.56,0,.23-0.12a0.63,0.63,0,0,1-.24-0.14,1.38,1.38,0,0,1-.36-0.47,5.08,5.08,0,0,1-.26-2.15l-1.41.44a1.12,1.12,0,0,1,.25.4,0.4,0.4,0,0,0,.07.28c-0.15.07-.47,0.27-0.18,0.37a1.55,1.55,0,0,1,.61.33,0.68,0.68,0,0,1,.18.36q-0.19.67,0.72,0l-0.43.41,0.11,0-0.72.13c0.21,0,.27.3,0.21,0.44l1.4-.37a0.75,0.75,0,0,1-.47-0.73c0-.24-1.46,0-1.45.39h0Z" transform="translate(-186.52 -34.08)"/></g><g class="cls-2"><path class="cls-3" d="M191.19,39.64a1.24,1.24,0,0,0,.32,1,0.88,0.88,0,0,0,1.15,0,0.86,0.86,0,0,0,.38-1,0.61,0.61,0,0,0-.66-0.35,0.87,0.87,0,0,0-.9.75,0.78,0.78,0,0,0,1,.5,2.32,2.32,0,0,0,1.23-.57c0.36-.4,0-0.88.26-1.25,0.54-.67-0.66-1-1.09-0.56a0.8,0.8,0,0,0-.34.87l1.45-.39a0.92,0.92,0,0,0-1.09-.58,1.57,1.57,0,0,0-1.15.89l1.43,0c0-.55.12-1.42-0.32-1.82a0.94,0.94,0,0,0-1,.08,0.59,0.59,0,0,0-.29.47,0.5,0.5,0,0,0,.49.49h0c0.73,0.11,1.47-.92.5-1.07h0L193,37.69V37.63l-0.25.39,0,0-1,.08c-0.16-.14-0.07.35-0.07,0.43l0,0.65c0,0.77,1.16.51,1.43,0q0.32-.4-0.6-0.1c0.18,0.68,1.63.3,1.45-.39l-0.14.2-1.09-.56a1.55,1.55,0,0,0-.36.78c0,0.14,0,.29,0,0.42l0.11-.06a1.71,1.71,0,0,1-.32.09h0.55l-0.13,0,0.31,0.3,0,0.12-0.76.45h0.07l-0.66-.35,0.1-.09,1.15,0a0.52,0.52,0,0,1-.17-0.48c0.09-.75-1.39-0.57-1.47.1h0Z" transform="translate(-186.52 -34.08)"/></g><g class="cls-2"><path class="cls-3" d="M190.47,35.74l-0.24.61a0.47,0.47,0,0,0,.45.63c0.52,0,1.46-.33,1.18-1a0.79,0.79,0,0,0-1.45.39,1.28,1.28,0,0,0,.64.95,0.93,0.93,0,0,0,1.25-.34,1.79,1.79,0,0,0-.64-2.33,0.94,0.94,0,0,0-1,.08,0.47,0.47,0,0,0-.07.77,1,1,0,0,1,.36,1.3l1.25-.34a0.55,0.55,0,0,1-.3-0.48l-1.45.39L190.7,36l0.57-.1h-0.09l0.45,0.63,0.24-.61c0.3-.79-1.15-0.8-1.39-0.18h0Z" transform="translate(-186.52 -34.08)"/></g><g class="cls-2"><path class="cls-3" d="M187.43,36.16c-0.08.49-.57,0.86-0.11,1.34a1.17,1.17,0,0,0,1.56-.14l-1.26.14,0.26,0.36a1,1,0,0,0,1.35-.25l0.46-1.16a1.38,1.38,0,0,0,.18-0.85,1.27,1.27,0,0,0-1.62-.6,2,2,0,0,0-.83,3.23c0.37,0.43,1.76-.11,1.34-0.6a1.62,1.62,0,0,1-.4-0.84,1.43,1.43,0,0,1,0-.41,3.76,3.76,0,0,0,.15-0.45q0.12-.15-0.15,0L188.41,36c-0.06.17-.09,0.36-0.16,0.53l-0.39,1,1.35-.25L189,36.9a1,1,0,0,0-1.26.14l-0.06.06,0.48-.26h0.47s0.3-.74.31-0.83c0.11-.63-1.36-0.41-1.46.15h0Z" transform="translate(-186.52 -34.08)"/></g></svg>