<?xml version="1.0" encoding="UTF-8" standalone="no"?>
<!-- Created with Inkscape (http://www.inkscape.org/) -->

<svg
   xmlns:dc="http://purl.org/dc/elements/1.1/"
   xmlns:cc="http://creativecommons.org/ns#"
   xmlns:rdf="http://www.w3.org/1999/02/22-rdf-syntax-ns#"
   xmlns:svg="http://www.w3.org/2000/svg"
   xmlns="http://www.w3.org/2000/svg"
   xmlns:sodipodi="http://sodipodi.sourceforge.net/DTD/sodipodi-0.dtd"
   xmlns:inkscape="http://www.inkscape.org/namespaces/inkscape"
   width="2.5478251mm"
   height="2.8661933mm"
   viewBox="0 0 2.5478251 2.8661933"
   version="1.1"
   id="svg413"
   inkscape:version="0.92.2 2405546, 2018-03-11"
   sodipodi:docname="heart.svg">
  <defs
     id="defs407">
    <clipPath
       id="clipPath744"
       clipPathUnits="userSpaceOnUse">
      <path
         inkscape:connector-curvature="0"
         id="path742"
         d="m 257.292,97.4198 h 5.254 v -5.2077 h -5.254 z" />
    </clipPath>
  </defs>
  <sodipodi:namedview
     id="base"
     pagecolor="#ffffff"
     bordercolor="#666666"
     borderopacity="1.0"
     inkscape:pageopacity="0.0"
     inkscape:pageshadow="2"
     inkscape:zoom="12.018606"
     inkscape:cx="-0.95512971"
     inkscape:cy="-9.8705533"
     inkscape:document-units="mm"
     inkscape:current-layer="layer1"
     showgrid="false"
     inkscape:window-width="951"
     inkscape:window-height="1053"
     inkscape:window-x="1923"
     inkscape:window-y="20"
     inkscape:window-maximized="1" />
  <metadata
     id="metadata410">
    <rdf:RDF>
      <cc:Work
         rdf:about="">
        <dc:format>image/svg+xml</dc:format>
        <dc:type
           rdf:resource="http://purl.org/dc/dcmitype/StillImage" />
        <dc:title></dc:title>
      </cc:Work>
    </rdf:RDF>
  </metadata>
  <g
     inkscape:label="Layer 1"
     inkscape:groupmode="layer"
     id="layer1"
     transform="translate(-86.079538,-95.499323)">
    <g
       id="g734"
       transform="matrix(0.35277777,0,0,-0.35277777,86.465944,97.771636)">
      <path
         inkscape:connector-curvature="0"
         d="M 0,0 C 0.116,1.268 0.407,2.479 0.972,3.63 1.081,3.862 1.202,4.089 1.335,4.309 1.54,5.071 2.021,5.354 2.778,5.158 3.764,5.518 4.013,5.22 3.525,4.264 3.314,3.915 3.067,3.594 2.784,3.302 2.512,2.997 3.041,2.891 3.247,2.986 3.182,2.956 4.157,3.505 4.073,3.525 4.227,3.701 4.289,3.564 4.259,3.113 4.567,2.573 4.334,2.309 3.558,2.322 2.759,2.027 1.935,1.783 1.183,1.374 0.033,0.749 -0.817,-0.16 -1.09,-1.457 -1.165,-1.809 -0.424,-1.72 -0.357,-1.4 0.106,0.801 2.358,1.294 4.152,2.001 4.89,2.292 5.924,2.663 6.103,3.556 6.2,4.043 6,4.535 5.525,4.726 4.464,5.152 3.699,3.763 2.927,3.408 3.081,3.303 3.235,3.197 3.39,3.092 4.006,3.782 4.793,4.751 4.312,5.736 4.013,6.348 3.42,6.526 2.789,6.406 0.396,5.947 -0.553,1.917 -0.733,-0.057 -0.767,-0.426 -0.029,-0.325 0,0"
         style="fill:#231f20;fill-opacity:1;fill-rule:nonzero;stroke:none"
         id="path736" />
    </g>
    <g
       id="g738"
       transform="matrix(0.35277777,0,0,-0.35277777,-4.3667112,130.06266)">
      <g
         id="g740" />
      <g
         id="g752">
        <g
           clip-path="url(#clipPath744)"
           id="g750"
           style="opacity:0.60000598">
          <g
             transform="translate(259.495,96.3339)"
             id="g748">
            <path
               inkscape:connector-curvature="0"
               d="m 0,0 c -0.006,-0.059 -0.012,-0.117 -0.018,-0.176 0.264,0.201 0.528,0.402 0.791,0.602 -0.755,0.315 -1.39,-0.381 -1.148,-1.119 0.108,-0.328 0.427,-0.52 0.77,-0.437 0.544,0.133 0.871,0.665 0.667,1.206 L 0.9,-0.532 c 0.058,0.066 0.115,0.132 0.172,0.198 0.174,0.198 0.259,0.519 0.098,0.757 -0.081,0.119 -0.163,0.24 -0.244,0.36 -0.252,0.373 -0.84,0.434 -1.079,0 -0.712,-1.295 -1.374,-2.614 -1.987,-3.958 -0.247,-0.543 0.274,-1.189 0.855,-0.855 1.341,0.768 2.681,1.537 4.022,2.305 0.712,0.409 0.088,1.403 -0.631,1.079 -0.539,-0.242 -1.094,-0.3 -1.672,-0.19 0.05,-0.381 0.1,-0.762 0.149,-1.143 0.631,0.387 0.938,0.928 1.002,1.659 C 1.626,0.143 1.021,0.474 0.645,0.22 0.561,0.163 0.477,0.106 0.393,0.049 -0.27,-0.399 0.355,-1.482 1.023,-1.03 1.108,-0.973 1.192,-0.917 1.276,-0.859 0.962,-0.68 0.649,-0.5 0.335,-0.32 0.324,-0.589 0.196,-0.782 -0.047,-0.899 -0.474,-1.161 -0.45,-1.937 0.102,-2.042 c 0.939,-0.178 1.765,-0.074 2.635,0.317 -0.21,0.36 -0.421,0.72 -0.631,1.079 -1.34,-0.768 -2.681,-1.537 -4.022,-2.305 0.285,-0.285 0.57,-0.57 0.855,-0.855 0.613,1.344 1.275,2.663 1.987,3.958 h -1.079 c 0.081,-0.12 0.162,-0.24 0.244,-0.36 C 0.123,0.044 0.156,0.297 0.188,0.549 0.131,0.483 0.074,0.418 0.017,0.352 -0.122,0.193 -0.225,-0.042 -0.144,-0.256 c 0.069,0.11 0.137,0.221 0.206,0.332 L 0.831,-0.361 C 0.811,-0.3 0.791,-0.239 0.771,-0.177 0.75,-0.338 0.729,-0.499 0.708,-0.659 0.734,-0.6 0.76,-0.542 0.787,-0.482 L 0.413,-0.77 C 0.422,-0.773 0.432,-0.776 0.441,-0.779 0.853,-0.95 1.197,-0.529 1.232,-0.176 1.238,-0.117 1.244,-0.059 1.25,0 1.329,0.8 0.079,0.794 0,0"
               style="fill:#ed1c24;fill-opacity:1;fill-rule:nonzero;stroke:none"
               id="path746" />
          </g>
        </g>
      </g>
    </g>
  </g>
</svg>
